<svg width="22" height="22" viewBox="0 0 22 22" fill="none" xmlns="http://www.w3.org/2000/svg">
<g id="elements">
<path id="Vector 6709" d="M13 1H9C5.72077 1 4.08116 1 2.91891 1.81382C2.48891 2.1149 2.1149 2.48891 1.81382 2.91891C1 4.08116 1 5.72077 1 9C1 12.2792 1 13.9188 1.81382 15.0811C2.1149 15.5111 2.48891 15.8851 2.91891 16.1862C4.08116 17 5.72077 17 9 17H13C16.2792 17 17.9188 17 19.0811 16.1862C19.5111 15.8851 19.8851 15.5111 20.1862 15.0811C21 13.9188 21 12.2792 21 9C21 5.72077 21 4.08116 20.1862 2.91891C19.8851 2.48891 19.5111 2.1149 19.0811 1.81382C17.9188 1 16.2792 1 13 1Z" stroke="#033D59" stroke-width="1.5" stroke-linecap="round"/>
<path id="Vector" d="M13.5 21L13.1845 20.5811C12.4733 19.6369 12.2969 18.1944 12.7468 17M8.5 21L8.8155 20.5811C9.52673 19.6369 9.70305 18.1944 9.25323 17" stroke="#033D59" stroke-width="1.5" stroke-linecap="round"/>
<path id="Vector 6712" d="M6 21H16" stroke="#033D59" stroke-width="1.5" stroke-linecap="round"/>
<path id="Vector_2" d="M7 13C8.83846 10.4046 13.1188 10.263 15 13M13 7C13 8.10457 12.1046 9 11 9C9.89543 9 9 8.10457 9 7C9 5.89543 9.89543 5 11 5C12.1046 5 13 5.89543 13 7Z" stroke="#033D59" stroke-width="1.5" stroke-linecap="round"/>
</g>
</svg>
