<svg width="20" height="22" viewBox="0 0 20 22" fill="none" xmlns="http://www.w3.org/2000/svg">
<g id="elements">
<path id="Vector" d="M5.50304 3C5.48421 2.62851 5.55185 2.34156 5.73579 2.1C6.19267 1.5 7.12335 1.5 8.98471 1.5H11.0153C12.8766 1.5 13.8073 1.5 14.2642 2.1C14.4481 2.34156 14.5158 2.62851 14.497 3" stroke="#033D59" stroke-width="1.5" stroke-linecap="round" stroke-linejoin="round"/>
<path id="Vector_2" d="M3 7C3.03784 6.74037 3.12478 6.51593 3.26968 6.31431C3.85493 5.5 5.0681 5.5 7.49444 5.5H12.5056C14.9319 5.5 16.1451 5.5 16.7303 6.31431C16.8752 6.51593 16.9622 6.74037 17 7" stroke="#033D59" stroke-width="1.5" stroke-linecap="round" stroke-linejoin="round"/>
<path id="Vector_3" d="M1.81753 14.7128L2.53641 17.016C3.43193 19.8852 4.19729 20.5 7.21027 20.5H12.7897C15.8027 20.5 16.5681 19.8852 17.4636 17.016L18.1825 14.7128C18.9261 12.3303 19.2979 11.139 18.7101 10.3195C18.1223 9.5 16.896 9.5 14.4434 9.5H5.55662C3.104 9.5 1.8777 9.5 1.28988 10.3195C0.702069 11.139 1.07389 12.3303 1.81753 14.7128Z" stroke="#033D59" stroke-width="1.5" stroke-linecap="round" stroke-linejoin="round"/>
</g>
</svg>
