<svg width="22" height="22" viewBox="0 0 22 22" fill="none" xmlns="http://www.w3.org/2000/svg">
<g id="elements">
<path id="Ellipse 1794" d="M11 21C16.5228 21 21 16.5228 21 11C21 5.47715 16.5228 1 11 1C5.47715 1 1 5.47715 1 11C1 12.3789 1.27907 13.6926 1.78382 14.8877C2.06278 15.5481 2.20226 15.8784 2.21953 16.128C2.2368 16.3776 2.16334 16.6521 2.01642 17.2012L1 21L4.79877 19.9836C5.34788 19.8367 5.62244 19.7632 5.87202 19.7805C6.12161 19.7977 6.45185 19.9372 7.11235 20.2162C8.30745 20.7209 9.62113 21 11 21Z" stroke="#033D59" stroke-width="1.5" stroke-linejoin="round"/>
<path id="Vector" d="M7.58815 11.3773L8.45909 10.2956C8.82616 9.83974 9.27994 9.41529 9.31546 8.80826C9.32444 8.65494 9.21656 7.96657 9.0008 6.58986C8.91601 6.04881 8.41086 6 7.97332 6C7.40314 6 7.11805 6 6.83495 6.12931C6.47714 6.29275 6.10979 6.75231 6.02917 7.13733C5.96539 7.44196 6.01279 7.65187 6.10759 8.07169C6.51023 9.85482 7.45481 11.6158 8.91948 13.0805C10.3842 14.5452 12.1452 15.4898 13.9283 15.8924C14.3481 15.9872 14.558 16.0346 14.8627 15.9708C15.2477 15.8902 15.7072 15.5229 15.8707 15.165C16 14.8819 16 14.5969 16 14.0267C16 13.5891 15.9512 13.084 15.4101 12.9992C14.0334 12.7834 13.3451 12.6756 13.1917 12.6845C12.5847 12.7201 12.1603 13.1738 11.7044 13.5409L10.6227 14.4118" stroke="#033D59" stroke-width="1.5"/>
</g>
</svg>
