<svg width="22" height="22" viewBox="0 0 22 22" fill="none" xmlns="http://www.w3.org/2000/svg">
<g id="elements">
<path id="Vector 3591" d="M7.9995 21L7.74887 17.4911C7.61412 15.6046 9.10822 14 10.9995 14C12.8908 14 14.3849 15.6046 14.2501 17.4911L13.9995 21" stroke="#00AAE1" stroke-width="1.5"/>
<path id="Rectangle 1147" d="M1.35157 12.2135C0.998554 9.91624 0.822044 8.76763 1.25635 7.74938C1.69065 6.73112 2.65421 6.03443 4.58132 4.64106L6.02117 3.6C8.41847 1.86667 9.61712 1 11.0002 1C12.3832 1 13.5819 1.86667 15.9792 3.6L17.419 4.64106C19.3462 6.03443 20.3097 6.73112 20.744 7.74938C21.1783 8.76763 21.0018 9.91624 20.6488 12.2135L20.3478 14.1724C19.8473 17.4289 19.5971 19.0572 18.4292 20.0286C17.2613 21 15.5538 21 12.139 21H9.86137C6.44652 21 4.73909 21 3.57118 20.0286C2.40327 19.0572 2.15305 17.4289 1.65261 14.1724L1.35157 12.2135Z" stroke="#00AAE1" stroke-width="1.5" stroke-linejoin="round"/>
</g>
</svg>
