<?xml version="1.0" encoding="utf-8"?>
<!-- Generator: Adobe Illustrator 27.8.0, SVG Export Plug-In . SVG Version: 6.00 Build 0)  -->
<svg version="1.1" id="Layer_1" xmlns="http://www.w3.org/2000/svg" xmlns:xlink="http://www.w3.org/1999/xlink" x="0px" y="0px"
	 viewBox="0 0 453.6 500" style="enable-background:new 0 0 453.6 500;" xml:space="preserve">
<style type="text/css">
	.st0{fill:#FFFFFF;}
	.st1{fill:#00AAE1;}
	.st2{fill:#DBDBDB;}
</style>
<g>
	<path class="st0" d="M453.4,74.7L453.4,74.7c-0.5-9.9-7.2-18.4-16.7-21.2h0c-2.6-0.8-38.1-17.7-106.1-35.2
		C294.6,9.1,260.8-0.3,227,0c-35.9,0.3-71.8,10.9-110.2,20.9c-67.9,17.5-97.4,31.9-100,32.7h0C7.3,56.4,0.7,64.8,0.2,74.7l0,0
		C0,77.8-3.3,152,29,284.8c27.7,114.1,129.4,177,184.1,210.9l1.4,0.9c7.5,4.6,17,4.6,24.5,0l1.4-0.9
		c54.6-33.8,156.4-96.8,184.1-210.9C456.8,152,453.6,77.9,453.4,74.7L453.4,74.7z"/>
	<path class="st1" d="M446.2,80.8L446.2,80.8c-0.5-9.6-7-17.8-16.1-20.5h0c-2.5-0.8-36.9-17.1-102.7-34
		c-34.9-9-67.6-18.2-100.3-17.9c-34.8,0.3-69.5,10.8-106.7,20.3C54.6,45.7,26.1,59.6,23.5,60.3h0C14.3,63,7.9,71.2,7.4,80.8l0,0
		c-0.2,3-3.3,74.7,27.9,202.9c26.8,110.2,125.3,171,178.2,203.7l1.4,0.9c7.3,4.5,16.4,4.5,23.7,0l1.4-0.9
		c52.9-32.7,151.4-93.5,178.2-203.7C449.5,155.5,446.3,83.8,446.2,80.8L446.2,80.8z"/>
</g>
<g>
	<path class="st0" d="M268.9,184h-12.8v-60.8h-32.9c-14.3,0-25.9,11.6-25.9,25.9V184h-60.8v10.7c0,26.5,21.5,48,48,48h12.8v60.8
		h32.9c14.3,0,25.9-11.6,25.9-25.9v-34.9H317V232C317,205.5,295.5,184,268.9,184z"/>
	<g>
		<g>
			<path class="st0" d="M261.1,86.8c-0.1,2.5,1.8,4.7,4.2,4.8c15.1,0.9,26.7,14,25.8,29.3c-0.1,2.5,1.8,4.7,4.2,4.8s4.6-1.8,4.8-4.3
				c1.2-20.3-14.2-37.8-34.3-38.9C263.4,82.3,261.3,84.2,261.1,86.8L261.1,86.8z"/>
			<path class="st0" d="M262.3,66c-0.1,2.5,1.8,4.7,4.2,4.8c19.8,1.1,36.2,14.4,42.5,32.2c2.1,5.9,3.1,12.4,2.7,19.1
				c-0.1,2.5,1.8,4.7,4.2,4.8s4.6-1.8,4.8-4.3c1.8-31.8-22.2-59.1-53.6-60.9C264.6,61.5,262.5,63.5,262.3,66L262.3,66z"/>
		</g>
		<circle class="st0" cx="270.1" cy="111.9" r="9.8"/>
	</g>
	<g>
		<path class="st0" d="M143.5,376.4v-37.5H130v-10.4H171v10.4h-13.5v37.5H143.5L143.5,376.4z"/>
		<path class="st0" d="M188.6,377.1c-4.1,0-7.8-0.7-10.9-2c-3.1-1.4-5.6-3.4-7.4-6.1s-2.6-6.1-2.6-10.1c0-5.6,1.6-10.1,4.8-13.4
			c3.2-3.4,7.9-5,14.2-5c5.8,0,10.3,1.5,13.5,4.4c3.2,2.9,4.9,6.9,4.9,12v6.2h-24.5c0.6,1.9,1.9,3.2,3.8,4c1.9,0.8,4.4,1.2,7.7,1.2
			c2,0,4.1-0.2,6.1-0.6s3.7-0.8,4.9-1.3l0,0v8.4C199.6,376.3,194.8,377.1,188.6,377.1L188.6,377.1z M180.5,355.3H193V354
			c0-1.4-0.4-2.5-1.3-3.4c-0.9-0.9-2.4-1.3-4.6-1.3c-2.4,0-4.1,0.5-5.1,1.5S180.5,353.3,180.5,355.3L180.5,355.3z"/>
		<path class="st0" d="M210.2,376.4v-48h14v16.9l14.5-16.9h15.9l-16.9,19.7l18.1,28.3H241L229.1,357l-4.9,5.5v13.9L210.2,376.4
			L210.2,376.4z"/>
		<path class="st0" d="M275.7,377.1c-4.1,0-7.8-0.7-10.9-2c-3.1-1.4-5.6-3.4-7.4-6.1c-1.8-2.7-2.6-6.1-2.6-10.1
			c0-5.6,1.6-10.1,4.8-13.4s7.9-5,14.2-5c5.8,0,10.3,1.5,13.5,4.4c3.2,2.9,4.9,6.9,4.9,12v6.2h-24.5c0.6,1.9,1.9,3.2,3.8,4
			c1.9,0.8,4.4,1.2,7.7,1.2c2,0,4.1-0.2,6.1-0.6c2.1-0.4,3.7-0.8,5-1.3l0,0v8.4C286.7,376.3,281.9,377.1,275.7,377.1L275.7,377.1z
			 M267.6,355.3h12.4V354c0-1.4-0.4-2.5-1.3-3.4c-0.9-0.9-2.4-1.3-4.6-1.3c-2.4,0-4.1,0.5-5.1,1.5S267.6,353.3,267.6,355.3
			L267.6,355.3z"/>
		<path class="st0" d="M297.4,376.4v-35.3h13.5l0.4,2.8c1.4-0.8,3.3-1.6,5.5-2.3c2.2-0.7,4.5-1.1,6.8-1.3v10.4
			c-1.3,0.1-2.7,0.3-4.2,0.5s-3,0.6-4.4,0.9s-2.6,0.8-3.5,1.2v22.9L297.4,376.4L297.4,376.4z"/>
	</g>
	<g>
		<rect x="191.3" y="184.2" class="st2" width="6.2" height="58.2"/>
		<rect x="256" y="184.2" class="st2" width="6.2" height="58.2"/>
	</g>
</g>
</svg>
