<svg width="96" height="48" viewBox="0 0 96 48" fill="none" xmlns="http://www.w3.org/2000/svg">
<path d="M41.8563 8.95166C41.8357 8.5352 41.686 8.13548 41.428 7.80794C41.1699 7.48041 40.8164 7.24131 40.4163 7.12383C40.1878 7.05663 37.1196 5.58782 31.2541 4.08062C28.1379 3.27806 25.2176 2.46974 22.303 2.49662C19.1984 2.52542 16.1014 3.44319 12.7817 4.29759C6.91421 5.81055 4.37021 7.05663 4.14173 7.12383C3.74195 7.24182 3.38867 7.48105 3.13072 7.80848C2.87276 8.13591 2.72286 8.53537 2.70173 8.95166C2.68829 9.22046 2.40797 15.6275 5.19773 27.0976C7.59389 36.9529 16.3798 42.3904 21.1011 45.3126L21.224 45.3875C21.5413 45.5834 21.907 45.6872 22.28 45.6872C22.653 45.6872 23.0186 45.5834 23.336 45.3875L23.4589 45.3126C28.1801 42.3904 36.966 36.9529 39.3622 27.0976C42.152 15.6275 41.8697 9.22046 41.8563 8.95166Z" fill="white"/>
<path d="M41.2323 9.47572C41.2116 9.0734 41.0663 8.68747 40.8166 8.37135C40.5668 8.05523 40.225 7.82456 39.8384 7.71124C39.6195 7.64596 36.6474 6.23092 30.9699 4.77172C27.9536 4.00372 25.1274 3.19924 22.305 3.22612C19.3002 3.25492 16.3011 4.1554 13.089 4.981C7.40963 6.44212 4.94627 7.64596 4.72547 7.71124C4.33873 7.8243 3.99676 8.05491 3.74699 8.37108C3.49722 8.68725 3.35203 9.07331 3.33155 9.47572C3.31811 9.733 3.04547 15.9231 5.74499 27.0015C8.06051 36.5228 16.5623 41.774 21.1357 44.5964L21.2567 44.6712C21.5645 44.8604 21.9187 44.9606 22.28 44.9606C22.6413 44.9606 22.9956 44.8604 23.3034 44.6712L23.4224 44.5964C27.992 41.7759 36.4995 36.5228 38.8189 27.0015C41.5223 15.9231 41.2458 9.733 41.2323 9.47572Z" fill="#00AAE1"/>
<path d="M25.9203 18.3884H24.8182V13.1353H21.9805C21.3867 13.1353 20.8173 13.3711 20.3975 13.791C19.9776 14.2108 19.7418 14.7802 19.7418 15.374V18.3884H14.4886V19.3157C14.4886 20.4163 14.9257 21.4719 15.7038 22.2503C16.4818 23.0287 17.5372 23.4663 18.6378 23.4668H19.7418V28.718H22.5795C23.1733 28.718 23.7427 28.4821 24.1625 28.0623C24.5824 27.6424 24.8182 27.073 24.8182 26.4793V23.4668H30.0694V22.5394C30.07 21.9943 29.963 21.4545 29.7547 20.9507C29.5464 20.447 29.2408 19.9893 28.8554 19.6037C28.4701 19.2182 28.0125 18.9124 27.5089 18.7039C27.0052 18.4953 26.4654 18.3881 25.9203 18.3884Z" fill="white"/>
<path d="M25.2464 9.99222C25.2401 10.096 25.2751 10.1981 25.3438 10.2762C25.4125 10.3542 25.5093 10.4019 25.6131 10.4089C26.2443 10.4498 26.8334 10.7395 27.2513 11.2142C27.6692 11.689 27.8817 12.3101 27.8422 12.9413C27.8364 13.0445 27.8717 13.1457 27.9405 13.2227C28.0093 13.2998 28.1058 13.3464 28.209 13.3522C28.3121 13.3581 28.4133 13.3227 28.4903 13.254C28.5674 13.1852 28.614 13.0886 28.6198 12.9855C28.6724 12.147 28.3903 11.3219 27.8352 10.6913C27.2801 10.0606 26.4976 9.67595 25.6592 9.62166C25.5554 9.61642 25.4538 9.65244 25.3764 9.72186C25.2991 9.79128 25.2523 9.88847 25.2464 9.99222Z" fill="white"/>
<path d="M25.3501 8.19702C25.3456 8.2487 25.3517 8.30074 25.3679 8.35001C25.3841 8.39928 25.4101 8.44476 25.4444 8.4837C25.4787 8.52263 25.5205 8.55422 25.5673 8.57656C25.6141 8.5989 25.6649 8.61152 25.7168 8.61366C26.5343 8.66382 27.3187 8.95449 27.9716 9.44914C28.6244 9.94379 29.1164 10.6204 29.3859 11.3938C29.5716 11.9228 29.6505 12.4834 29.6182 13.0431C29.6124 13.1462 29.6477 13.2474 29.7165 13.3245C29.7852 13.4015 29.8818 13.4481 29.9849 13.454C30.088 13.4598 30.1893 13.4245 30.2663 13.3557C30.3434 13.2869 30.39 13.1904 30.3958 13.0873C30.4773 11.7754 30.0351 10.4847 29.1662 9.49844C28.2973 8.51218 27.0726 7.91088 25.7609 7.82646C25.7094 7.82281 25.6577 7.82961 25.6088 7.84643C25.56 7.86324 25.515 7.88975 25.4767 7.92434C25.4383 7.95894 25.4073 8.00092 25.3856 8.04777C25.3638 8.09463 25.3517 8.14539 25.3501 8.19702Z" fill="white"/>
<path d="M26.024 13.0085C26.4895 13.0085 26.8669 12.6311 26.8669 12.1656C26.8669 11.7001 26.4895 11.3228 26.024 11.3228C25.5585 11.3228 25.1811 11.7001 25.1811 12.1656C25.1811 12.6311 25.5585 13.0085 26.024 13.0085Z" fill="white"/>
<path d="M15.0857 35.0098V31.7689H13.9203V30.8684H17.4588V31.7689H16.2953V35.0098H15.0857Z" fill="white"/>
<path d="M18.9776 35.0751C18.6546 35.0812 18.3338 35.0211 18.0349 34.8985C17.7736 34.7895 17.5514 34.6041 17.3974 34.3666C17.2377 34.1039 17.1583 33.8003 17.169 33.493C17.1479 33.0665 17.2963 32.649 17.5818 32.3314C17.8557 32.0421 18.2653 31.8975 18.8106 31.8975C19.2342 31.8737 19.6512 32.0108 19.9779 32.2815C20.1193 32.4128 20.2303 32.5735 20.3029 32.7523C20.3756 32.9311 20.4082 33.1236 20.3984 33.3164V33.8501H18.2902C18.316 33.9287 18.3587 34.0006 18.4155 34.0606C18.4723 34.1207 18.5416 34.1675 18.6186 34.1977C18.8305 34.2751 19.0555 34.3103 19.281 34.3013C19.4587 34.3008 19.6361 34.2841 19.8109 34.2514C19.9569 34.2286 20.1004 34.1913 20.239 34.1401V34.8658C19.8386 35.0257 19.4082 35.0971 18.9776 35.0751ZM18.2902 33.1897H19.3635V33.0802C19.3656 33.026 19.3568 32.9719 19.3377 32.9211C19.3186 32.8703 19.2895 32.8239 19.2522 32.7845C19.1405 32.6957 18.9985 32.6543 18.8566 32.6693C18.7779 32.6609 18.6983 32.6683 18.6225 32.6911C18.5467 32.7138 18.4761 32.7515 18.415 32.8018C18.3247 32.91 18.28 33.0491 18.2902 33.1897Z" fill="white"/>
<path d="M20.8496 35.0098V30.8684H22.0592V32.3276L23.313 30.8684H24.6896L23.2285 32.5657L24.7914 35.0098H23.505L22.4835 33.3375L22.0592 33.8137V35.0098H20.8496Z" fill="white"/>
<path d="M26.504 35.0751C26.181 35.0812 25.8601 35.0211 25.5612 34.8985C25.3 34.7895 25.0778 34.6041 24.9238 34.3666C24.7641 34.1039 24.6847 33.8003 24.6953 33.493C24.6743 33.0665 24.8227 32.649 25.1081 32.3314C25.3833 32.0421 25.7929 31.8975 26.3369 31.8975C26.7605 31.8737 27.1775 32.0108 27.5043 32.2815C27.6457 32.4128 27.7566 32.5735 27.8293 32.7523C27.9019 32.9311 27.9345 33.1236 27.9248 33.3164V33.8501H25.8128C25.8385 33.9287 25.8813 34.0006 25.938 34.0606C25.9948 34.1207 26.0641 34.1675 26.1411 34.1977C26.353 34.2751 26.578 34.3103 26.8035 34.3013C26.9813 34.3007 27.1586 34.284 27.3334 34.2514C27.4795 34.2286 27.6229 34.1913 27.7616 34.1401V34.8658C27.3623 35.0252 26.9333 35.0966 26.504 35.0751ZM25.8089 33.1897H26.8822V33.0802C26.8843 33.026 26.8755 32.9719 26.8564 32.9211C26.8373 32.8703 26.8082 32.8239 26.7708 32.7845C26.6592 32.6957 26.5172 32.6543 26.3753 32.6693C26.2966 32.6609 26.217 32.6683 26.1412 32.6911C26.0653 32.7138 25.9948 32.7515 25.9337 32.8018C25.8434 32.91 25.7986 33.0491 25.8089 33.1897Z" fill="white"/>
<path d="M28.376 35.0098V31.9608H29.5395L29.5721 32.2066C29.7229 32.1244 29.8827 32.06 30.0483 32.0146C30.2355 31.9562 30.4287 31.9195 30.6243 31.9052V32.8056C30.511 32.8056 30.3901 32.8287 30.2595 32.8498C30.1289 32.8709 30.0022 32.8997 29.8755 32.9304C29.7699 32.9564 29.667 32.9924 29.5683 33.038V35.0175L28.376 35.0098Z" fill="white"/>
<path d="M19.7513 18.4076H19.2156V23.438H19.7513V18.4076Z" fill="#DBDBDB"/>
<path d="M25.3405 18.4076H24.8048V23.438H25.3405V18.4076Z" fill="#DBDBDB"/>
<path d="M49.4605 29.7627V20.8957H46.272V18.432H55.9532V20.8957H52.7699V29.7627H49.4605Z" fill="#033D59"/>
<path d="M60.1083 29.9414C59.2246 29.9582 58.3468 29.7937 57.5291 29.4582C56.8144 29.1601 56.2064 28.6529 55.7851 28.0031C55.3482 27.2844 55.1309 26.4536 55.16 25.613C55.1025 24.4461 55.5085 23.3038 56.2894 22.4349C57.0388 21.6435 58.1595 21.2477 59.6513 21.2477C60.8103 21.1826 61.9512 21.5578 62.8452 22.2983C63.2321 22.6576 63.5356 23.0973 63.7344 23.5864C63.9331 24.0756 64.0223 24.6024 63.9956 25.1297V26.59H58.2278C58.2982 26.8049 58.4152 27.0016 58.5705 27.166C58.7258 27.3304 58.9155 27.4584 59.126 27.5408C59.7058 27.7528 60.3215 27.8492 60.9383 27.8245C61.4247 27.8231 61.91 27.7774 62.3881 27.6879C62.7878 27.6255 63.1802 27.5235 63.5596 27.3832V29.3689C62.4639 29.8064 61.2866 30.0017 60.1083 29.9414ZM58.2278 24.783H61.1642V24.4836C61.1699 24.3352 61.1459 24.1873 61.0936 24.0483C61.0412 23.9094 60.9617 23.7824 60.8595 23.6746C60.5542 23.4316 60.1655 23.3184 59.7774 23.3594C59.562 23.3365 59.3443 23.3567 59.1368 23.4189C58.9293 23.4812 58.7364 23.5842 58.5692 23.7219C58.3221 24.0179 58.1997 24.3984 58.2278 24.783Z" fill="#033D59"/>
<path d="M65.23 29.7628V18.4321H68.5394V22.4244L71.9696 18.4321H75.736L71.7384 23.0758L76.0144 29.7628H72.4949L69.7003 25.1875L68.5394 26.4902V29.7628H65.23Z" fill="#033D59"/>
<path d="M80.7 29.9414C79.8163 29.9582 78.9385 29.7937 78.1208 29.4582C77.406 29.1601 76.7981 28.6529 76.3768 28.0031C75.9398 27.2844 75.7225 26.4536 75.7517 25.613C75.6942 24.4461 76.1002 23.3038 76.8811 22.4349C77.634 21.6435 78.7547 21.2477 80.243 21.2477C81.402 21.1826 82.5429 21.5578 83.4368 22.2983C83.8238 22.6576 84.1273 23.0973 84.326 23.5864C84.5248 24.0756 84.6139 24.6024 84.5872 25.1297V26.59H78.8089C78.8793 26.8049 78.9964 27.0016 79.1517 27.166C79.3069 27.3304 79.4967 27.4584 79.7072 27.5408C80.287 27.7528 80.9027 27.8492 81.5195 27.8245C82.0059 27.8228 82.4912 27.7771 82.9693 27.6879C83.3689 27.6255 83.7613 27.5235 84.1407 27.3832V29.3689C83.0483 29.8049 81.8748 30.0002 80.7 29.9414ZM78.7984 24.783H81.7349V24.4836C81.7406 24.3352 81.7165 24.1873 81.6642 24.0483C81.6119 23.9094 81.5323 23.7824 81.4302 23.6746C81.1248 23.4316 80.7362 23.3184 80.3481 23.3594C80.1327 23.3365 79.9149 23.3567 79.7075 23.4189C79.5 23.4812 79.307 23.5842 79.1399 23.7219C78.8928 24.0179 78.7703 24.3984 78.7984 24.783Z" fill="#033D59"/>
<path d="M85.8218 29.7628V21.421H89.0051L89.0944 22.0934C89.5069 21.8685 89.944 21.6922 90.3971 21.5681C90.9092 21.4083 91.438 21.3078 91.973 21.2687V23.7323C91.6631 23.7323 91.3322 23.7954 90.975 23.8531C90.6178 23.9109 90.2711 23.9897 89.9244 24.0738C89.6355 24.1449 89.354 24.2434 89.0839 24.3679V29.7838L85.8218 29.7628Z" fill="#033D59"/>
</svg>
