<?xml version="1.0" standalone="no"?>
<!DOCTYPE svg PUBLIC "-//W3C//DTD SVG 20010904//EN"
 "http://www.w3.org/TR/2001/REC-SVG-20010904/DTD/svg10.dtd">
<svg version="1.0" xmlns="http://www.w3.org/2000/svg"
 width="1200.000000pt" height="1200.000000pt" viewBox="0 0 1200.000000 1200.000000"
 preserveAspectRatio="xMidYMid meet">
<metadata>
Created by potrace 1.14, written by Peter Selinger 2001-2017
</metadata>
<g transform="translate(0.000000,1200.000000) scale(0.100000,-0.100000)"
fill="#000000" stroke="none">
<path d="M7802 11980 c-148 -67 -179 -264 -59 -374 45 -40 80 -53 172 -61 114
-9 195 -20 295 -40 14 -3 34 -7 45 -9 11 -2 56 -14 100 -26 44 -12 85 -23 90
-24 6 -2 19 -6 30 -10 11 -5 34 -12 50 -18 17 -6 46 -17 65 -26 19 -8 41 -15
48 -15 6 0 12 -5 12 -10 0 -6 3 -8 6 -4 8 7 284 -132 329 -166 5 -4 34 -23 63
-42 53 -33 81 -53 151 -108 119 -95 226 -196 326 -311 33 -38 65 -74 70 -80 6
-6 26 -33 45 -61 19 -27 37 -52 40 -55 25 -25 129 -200 181 -305 62 -125 129
-282 129 -305 0 -5 4 -18 10 -28 21 -37 86 -306 94 -392 3 -25 6 -45 7 -45 2
0 8 -66 13 -155 3 -47 6 -85 6 -85 7 0 4 -124 -2 -137 -5 -10 -4 -19 2 -23 8
-5 7 -11 -1 -21 -7 -9 -8 -14 -1 -14 7 0 8 -10 3 -27 -10 -36 16 -118 49 -156
26 -30 85 -70 110 -74 118 -23 208 19 262 119 22 41 23 52 22 263 -1 205 -6
304 -19 365 -3 14 -7 43 -10 65 -5 54 -19 130 -29 163 -3 9 -8 33 -11 52 -3
19 -10 49 -15 65 -5 17 -21 71 -36 120 -26 87 -54 166 -96 270 -24 60 -157
328 -166 335 -4 3 -13 15 -19 28 -31 54 -41 70 -92 146 -139 206 -384 476
-541 596 -18 14 -41 32 -51 41 -76 65 -317 223 -401 262 -20 10 -40 22 -43 27
-3 6 -15 10 -25 10 -10 0 -20 4 -22 8 -7 20 -356 160 -380 154 -5 -1 -8 2 -8
6 0 5 -6 9 -12 9 -7 0 -44 10 -83 21 -38 12 -81 24 -95 26 -14 3 -43 10 -65
15 -22 6 -41 10 -42 11 -2 0 -4 0 -5 1 -16 5 -134 21 -155 22 -7 0 -13 3 -13
6 0 3 -15 7 -32 7 -18 1 -82 4 -143 7 -95 5 -116 4 -153 -13z"/>
<path d="M7775 10960 c-11 -4 -23 -6 -27 -3 -5 2 -8 0 -8 -6 0 -5 -9 -13 -21
-16 -26 -8 -79 -63 -79 -81 0 -8 -4 -14 -8 -14 -5 0 -9 -6 -10 -12 -1 -7 -4
-36 -8 -63 -8 -69 9 -126 54 -174 46 -50 90 -69 178 -76 70 -7 249 -39 249
-45 0 -1 9 -3 20 -5 36 -5 168 -58 245 -98 181 -95 317 -208 454 -379 37 -46
116 -171 116 -183 0 -8 4 -15 8 -17 25 -10 117 -262 136 -373 3 -16 8 -41 11
-55 2 -13 7 -54 11 -90 3 -36 8 -67 10 -69 2 -2 -1 -12 -7 -22 -5 -11 -6 -19
-2 -19 4 0 7 -37 6 -81 -1 -87 6 -114 45 -168 24 -32 79 -71 112 -79 37 -10
128 -3 155 11 40 20 127 107 109 107 -4 0 0 7 7 17 21 25 17 362 -7 483 -1 8
-3 15 -4 15 -1 0 -3 12 -5 27 -2 15 -13 65 -26 110 -12 46 -22 89 -22 96 0 6
-4 12 -8 12 -3 0 -9 12 -12 28 -6 37 -40 126 -49 130 -5 2 -8 8 -8 14 0 21
-74 164 -122 236 -26 40 -48 75 -48 78 0 3 -11 17 -25 32 -14 15 -25 30 -25
34 0 18 -293 318 -310 318 -4 0 -18 9 -31 21 -114 100 -419 256 -574 295 -5 2
-46 12 -90 24 -44 11 -98 22 -120 25 -43 6 -80 13 -80 15 0 6 -175 6 -190 0z"/>
<path d="M7940 9978 c-19 -5 -42 -11 -50 -14 -8 -3 -17 -5 -19 -4 -2 1 -7 -2
-10 -7 -3 -4 -24 -17 -46 -28 -48 -24 -165 -137 -165 -159 0 -9 -4 -16 -8 -16
-11 0 -40 -62 -52 -113 -27 -111 -21 -220 16 -304 9 -21 18 -40 19 -43 5 -21
41 -73 77 -112 65 -70 154 -120 258 -145 33 -8 172 -9 176 -1 3 5 9 6 13 3 5
-2 32 5 62 16 30 11 62 23 72 26 9 3 17 9 17 13 0 5 9 11 20 15 38 12 130 117
165 189 41 83 45 98 50 191 3 64 -6 137 -22 175 -3 8 -7 21 -9 27 -5 28 -69
121 -113 165 -110 110 -300 163 -451 126z"/>
<path d="M5531 8934 c-45 -8 -108 -22 -140 -31 -31 -9 -58 -18 -61 -18 -3 -1
-18 -7 -33 -13 -16 -7 -33 -12 -38 -12 -8 0 -26 -8 -69 -31 -8 -5 -35 -18 -60
-29 -24 -11 -47 -25 -51 -31 -3 -6 -13 -11 -21 -12 -42 -7 -259 -197 -327
-287 -14 -19 -28 -37 -31 -40 -8 -8 -61 -87 -81 -122 -17 -28 -43 -83 -79
-163 -13 -30 -37 -103 -55 -168 -15 -56 -19 -77 -31 -197 -4 -30 -7 -458 -8
-950 l-1 -895 -1495 -2 c-822 -1 -1501 -2 -1508 -2 -11 -1 -12 -70 -9 -368 5
-418 8 -460 52 -668 3 -16 8 -39 10 -50 2 -11 8 -35 14 -53 5 -18 11 -36 12
-40 4 -15 8 -29 28 -92 12 -36 23 -73 26 -83 2 -10 16 -43 30 -74 14 -30 25
-62 25 -69 0 -8 5 -14 10 -14 6 0 10 -5 10 -11 0 -15 63 -143 73 -147 4 -2 7
-9 7 -14 0 -6 14 -34 32 -62 125 -203 249 -359 393 -496 109 -104 156 -144
248 -212 29 -20 57 -41 62 -45 59 -46 278 -165 435 -236 39 -18 276 -96 300
-99 3 0 25 -6 50 -13 25 -7 74 -18 110 -24 36 -6 79 -14 95 -17 109 -21 243
-27 616 -27 l375 0 0 -1506 0 -1506 905 0 c816 0 910 2 968 17 36 9 68 15 73
12 4 -3 8 -1 8 3 0 5 12 10 26 11 15 1 32 6 38 11 9 7 34 15 76 26 3 0 28 12
55 25 28 13 52 24 55 25 36 9 205 123 270 181 106 96 151 147 209 234 20 30
39 57 42 60 10 8 43 74 41 82 -1 3 5 12 13 18 8 7 15 18 15 24 0 6 7 25 16 41
19 35 75 214 79 250 1 6 5 28 9 50 4 22 10 63 12 90 2 28 5 62 7 78 3 15 0 27
-6 27 -6 0 -6 5 0 12 5 7 8 24 6 38 -4 31 -4 35 0 87 2 24 -1 43 -6 43 -6 0
-6 5 -1 12 11 16 11 68 1 86 -5 6 -5 12 0 12 10 0 10 91 -1 108 -4 7 -3 12 2
12 9 0 7 51 -3 77 -2 7 0 15 4 17 5 3 6 18 4 33 -5 32 -5 38 0 73 2 14 -1 31
-6 38 -5 6 -6 12 -1 12 5 0 9 16 9 35 0 19 -4 35 -8 35 -5 0 -5 5 -1 12 11 17
11 188 0 188 -5 0 -4 6 0 13 11 15 11 67 1 85 -5 6 -5 12 0 12 4 0 8 16 8 35
0 19 -4 35 -8 35 -5 0 -5 5 -1 12 11 17 11 78 1 78 -4 0 -5 5 -1 12 11 17 11
88 0 88 -5 0 -5 5 0 13 11 14 11 77 0 95 -4 7 -2 12 4 12 7 0 8 6 1 19 -6 10
-7 21 -4 25 10 10 10 76 0 76 -4 0 -5 5 -1 12 11 17 11 108 1 108 -5 0 -5 6 0
13 4 6 8 26 8 42 l0 30 1507 0 1506 0 -1 123 c-1 67 2 122 6 122 5 0 5 5 1 11
-9 15 -9 293 0 308 4 6 4 11 -1 11 -4 0 -9 28 -9 63 -2 61 -11 202 -14 202 -1
0 -4 16 -15 90 -9 65 -17 102 -31 149 -7 27 -11 52 -8 57 3 5 1 9 -4 9 -5 0
-9 6 -10 13 -2 37 -53 193 -89 277 -29 66 -136 285 -142 290 -7 6 -28 41 -48
81 -7 15 -20 32 -28 39 -8 7 -15 16 -15 21 0 5 -6 17 -14 26 -45 56 -86 115
-86 125 0 6 -3 9 -6 5 -3 -3 -22 15 -41 41 -56 75 -260 272 -363 350 -52 40
-99 76 -105 80 -69 53 -298 179 -435 239 -48 21 -247 91 -280 99 -11 2 -30 7
-42 10 -68 17 -107 26 -142 30 -22 2 -42 8 -45 12 -4 4 -22 8 -41 8 -19 1 -55
5 -80 8 -123 16 -204 19 -551 19 l-376 1 1 53 c1 29 -3 53 -7 53 -6 0 -6 5 -1
13 11 15 11 67 1 85 -5 6 -5 12 0 12 4 0 8 16 8 35 0 19 -4 35 -8 35 -5 0 -5
5 -1 12 11 17 11 78 1 78 -4 0 -5 5 -1 12 11 17 11 88 0 88 -5 0 -5 5 0 13 11
14 11 77 0 95 -4 7 -2 12 4 12 7 0 8 6 0 19 -5 11 -6 22 -1 25 4 3 6 18 4 33
-5 32 -5 38 0 73 2 14 -1 31 -6 38 -5 6 -6 12 -1 12 5 0 9 16 9 35 0 19 -4 35
-8 35 -5 0 -5 6 0 13 10 16 10 38 1 59 -5 9 -4 19 1 22 4 3 6 18 4 33 -5 32
-5 38 0 73 2 14 -1 31 -6 38 -5 6 -6 12 -1 12 5 0 9 16 9 35 0 19 -4 35 -8 35
-5 0 -5 5 -1 12 11 17 11 188 0 188 -5 0 -4 6 0 13 11 15 11 67 1 85 -5 6 -5
12 0 12 4 0 8 16 8 35 0 19 -4 35 -8 35 -5 0 -5 5 -1 12 11 17 11 78 1 78 -4
0 -5 5 -1 12 11 17 11 88 0 88 -5 0 -5 5 0 13 11 14 11 77 0 95 -4 7 -2 12 4
12 7 0 8 6 0 19 -5 11 -6 22 -1 25 4 3 6 18 4 33 -5 32 -5 38 0 73 2 14 -1 31
-6 38 -5 6 -6 12 -1 12 5 0 9 16 9 35 0 19 -4 35 -8 35 -5 0 -5 5 -1 12 11 17
11 151 0 166 -5 7 -5 12 1 12 4 0 7 26 6 58 -4 73 -4 70 0 120 2 23 -1 42 -6
42 -6 0 -6 5 -1 13 11 15 11 67 1 85 -5 6 -5 12 0 12 10 0 10 91 -1 108 -4 7
-4 12 1 12 4 0 7 28 5 62 -3 71 -3 68 0 123 l3 40 -875 1 c-702 1 -892 -1
-959 -12z"/>
</g>
</svg>
