<svg width="21" height="22" viewBox="0 0 21 22" fill="none" xmlns="http://www.w3.org/2000/svg">
<g id="elements">
<path id="Vector" d="M6.66699 4C3.90557 4 1.66699 7.0139 1.66699 10.0278C1.66699 13.544 2.16699 16.0556 4.16699 19.0695C5.68744 21.1062 7.71726 21.6168 9.88094 20.1903C10.3427 19.8859 10.9913 19.8859 11.453 20.1903C13.6167 21.6168 15.6465 21.1062 17.167 19.0695C19.167 16.0556 19.667 13.544 19.667 10.0278C19.667 7.0139 17.4284 4 14.667 4C13.2416 4 11.9555 4.7849 11.0447 5.63254C10.833 5.82949 10.501 5.82949 10.2893 5.63254C9.37852 4.7849 8.09241 4 6.66699 4Z" stroke="#00AAE1" stroke-width="1.5" stroke-linejoin="round"/>
<path id="Vector_2" d="M4.66699 11C4.66699 9.36649 5.48972 7.73298 6.66699 7" stroke="#00AAE1" stroke-width="1.5" stroke-linecap="round" stroke-linejoin="round"/>
<path id="Vector 5198" d="M10.667 5C10.667 3.66667 11.267 1 13.667 1" stroke="#00AAE1" stroke-width="1.5" stroke-linecap="round" stroke-linejoin="round"/>
</g>
</svg>
