
<svg width="40" height="40" viewBox="0 0 40 40" fill="none" xmlns="http://www.w3.org/2000/svg">
<g id="Avatar">
<g clip-path="url(#clip0_720_17344)">
<path d="M0 0H40V40H0V0Z" fill="#EFFAFF"/>
<path id="Union" fill-rule="evenodd" clip-rule="evenodd" d="M19.7993 7.5C16.0309 7.5 12.9759 10.5549 12.9759 14.3234C12.9759 18.0919 16.0309 21.1468 19.7993 21.1468C23.5678 21.1468 26.6227 18.0919 26.6227 14.3234C26.6227 10.5549 23.5678 7.5 19.7993 7.5ZM20 24.7592C7.91877 24.7592 -1.875 34.5529 -1.875 46.6342C-1.875 58.7154 7.91877 68.5092 20 68.5092C32.0812 68.5092 41.875 58.7154 41.875 46.6342C41.875 34.5529 32.0812 24.7592 20 24.7592Z" fill="#00AAE1"/>
</g>
</g>
<defs>
<clipPath id="clip0_720_17344">
<path d="M0 0H40V40H0V0Z" fill="white"/>
</clipPath>
</defs>
</svg>
