<?xml version="1.0" encoding="UTF-8"?>
<svg id="Layer_2" data-name="Layer 2" xmlns="http://www.w3.org/2000/svg" viewBox="0 0 19.07 20">
  <defs>
    <style>
      .cls-1 {
        fill: #00323e;
      }
    </style>
  </defs>
  <g id="Layer_1-2" data-name="Layer 1">
    <g>
      <path class="cls-1" d="m5.82,10h0c-.51,0-.93.42-.93.93s.42.93.93.93.93-.42.93-.93-.42-.93-.93-.93Z"/>
      <path class="cls-1" d="m5.82,13.72h0c-.51,0-.93.42-.93.93s.42.93.93.93.93-.42.93-.93-.42-.93-.93-.93Z"/>
      <path class="cls-1" d="m13.26,10h0c-.51,0-.93.42-.93.93s.42.93.93.93.93-.42.93-.93-.42-.93-.93-.93Z"/>
      <path class="cls-1" d="m9.54,10h0c-.51,0-.93.42-.93.93s.42.93.93.93.93-.42.93-.93-.42-.93-.93-.93Z"/>
      <path class="cls-1" d="m9.54,13.72h0c-.51,0-.93.42-.93.93s.42.93.93.93.93-.42.93-.93-.42-.93-.93-.93Z"/>
      <path class="cls-1" d="m17.72,2.41c-.52-.56-1.13-.91-1.91-1.13v-.59c0-.39-.31-.7-.7-.7s-.7.31-.7.7v.35c-1.06-.11-2.35-.11-4-.11h-1.77c-1.65,0-2.94,0-4,.11v-.35c0-.39-.31-.7-.7-.7s-.7.31-.7.7v.59c-.77.22-1.38.56-1.91,1.13-1.35,1.46-1.35,3.58-1.35,7.81v.48c0,4.23,0,6.35,1.35,7.81,1.37,1.48,3.35,1.48,7.3,1.48h1.77c3.95,0,5.93,0,7.3-1.48,1.35-1.46,1.35-3.58,1.35-7.81v-.48c0-4.23,0-6.35-1.35-7.81Zm-14.42.34c.09.29.34.5.66.5.39,0,.7-.31.7-.7v-.11c.99-.12,2.29-.12,4-.12h1.77c1.71,0,3.01,0,4,.12v.11c0,.39.31.7.7.7.32,0,.57-.22.66-.5.37.15.67.34.92.61.46.5.7,1.21.83,2.22H1.54c.13-1.01.37-1.72.83-2.22.25-.27.55-.46.92-.61Zm14.38,7.95c0,3.87,0,5.81-.98,6.87-.96,1.04-2.73,1.04-6.28,1.04h-1.77c-3.54,0-5.32,0-6.28-1.04-.98-1.06-.98-3-.98-6.87v-.48c0-1.29,0-2.35.04-3.25h16.2c.04.9.04,1.96.04,3.25v.48Z"/>
    </g>
  </g>
</svg>