<?xml version="1.0" encoding="UTF-8"?>
<svg id="Layer_2" data-name="Layer 2" xmlns="http://www.w3.org/2000/svg" viewBox="0 0 20 16.28">
  <defs>
    <style>
      .cls-1 {
        fill: #0099bc;
      }
    </style>
  </defs>
  <g id="Layer_1-2" data-name="Layer 1">
    <g>
      <path class="cls-1" d="m18.82,2.5c-1.01-.5-1.97.08-3.57,1.37-.12-1.2-.4-2.04-1.06-2.71-1.16-1.16-2.79-1.16-6.05-1.16h-.93C3.95,0,2.32,0,1.16,1.16,0,2.32,0,3.95,0,7.21v1.86c0,3.26,0,4.89,1.16,6.05,1.16,1.16,2.79,1.16,6.05,1.16h.93c3.26,0,4.89,0,6.05-1.16.67-.67.94-1.51,1.06-2.71,1.21.98,2.06,1.55,2.83,1.55.25,0,.49-.06.74-.18,1.18-.59,1.18-2.03,1.18-4.92v-1.45c0-2.88,0-4.33-1.18-4.92Zm-4.87,6.57c0,2.87,0,4.32-.75,5.06-.75.75-2.19.75-5.06.75h-.93c-2.87,0-4.32,0-5.07-.75-.75-.75-.75-2.19-.75-5.06v-1.86c0-2.87,0-4.32.75-5.06.75-.75,2.19-.75,5.07-.75h.93c2.87,0,4.32,0,5.06.75.75.75.75,2.19.75,5.06v1.86Zm4.65-.2c0,1.94,0,3.47-.4,3.67-.38.18-1.47-.7-2.86-1.85,0-.49,0-1.02,0-1.61v-1.86c0-.59,0-1.12,0-1.61,1.39-1.15,2.49-2.03,2.86-1.85.4.2.4,1.73.4,3.67v1.45Z"/>
      <path class="cls-1" d="m9.53,3.72c-1.15,0-2.09.94-2.09,2.09s.94,2.09,2.09,2.09,2.09-.94,2.09-2.09-.94-2.09-2.09-2.09Zm0,2.79c-.38,0-.7-.31-.7-.7s.31-.7.7-.7.7.31.7.7-.31.7-.7.7Z"/>
    </g>
  </g>
</svg>