<svg width="20" height="20" viewBox="0 0 20 20" fill="none" xmlns="http://www.w3.org/2000/svg">
<g id="elements">
<path id="Rectangle 2285" d="M17.4984 10.4167C17.4984 10.4167 17.5003 10.0256 17.5003 9.58341C17.5003 5.85146 17.5003 3.98549 16.341 2.82612C15.1816 1.66675 13.3156 1.66675 9.58366 1.66675C5.85171 1.66675 3.98573 1.66675 2.82636 2.82612C1.66699 3.98549 1.66699 5.85146 1.66699 9.58341C1.66699 13.3154 1.66699 15.1813 2.82636 16.3407C3.98573 17.5001 5.85171 17.5001 9.58366 17.5001C10.0259 17.5001 10.417 17.4982 10.417 17.4982" stroke="#033D59" stroke-width="1.5" stroke-linecap="round"/>
<path id="Vector 4723" d="M1.66699 5.8335L17.5003 5.8335" stroke="#033D59" stroke-width="1.5" stroke-linejoin="round"/>
<path id="Vector" d="M8.33333 13.3333L9.58333 13.3333M5 13.3333H5.83333M8.33333 10L13.3333 10M5 10H5.83333" stroke="#033D59" stroke-width="1.5" stroke-linecap="round" stroke-linejoin="round"/>
<path id="Vector_2" d="M13.334 13.3335L15.834 15.8335M15.834 15.8335L18.334 18.3335M15.834 15.8335L13.334 18.3335M15.834 15.8335L18.334 13.3335" stroke="#033D59" stroke-width="1.5" stroke-linecap="round" stroke-linejoin="round"/>
</g>
</svg>
