<svg width="18" height="18" viewBox="0 0 18 18" fill="none" xmlns="http://www.w3.org/2000/svg">
<g id="elements">
<path id="Ellipse 1574" d="M16.5 9C16.5 13.1421 13.1421 16.5 9 16.5C4.85786 16.5 1.5 13.1421 1.5 9C1.5 4.85786 4.85786 1.5 9 1.5C13.1421 1.5 16.5 4.85786 16.5 9Z" stroke="#033D59" stroke-width="1.13" stroke-linejoin="round"/>
<path id="Vector" d="M9 4.875V6M9 6C7.86091 6 6.9375 6.69649 6.9375 7.5556C6.9375 8.41471 7.5 8.88893 9 8.88893C10.5 8.88893 11.25 9.33337 11.25 10.4445C11.25 11.5556 10.2426 12 9 12M9 6C10.1391 6 11.0625 6.69649 11.0625 7.5556M9 12V13.125M9 12C7.75736 12 6.75 11.3036 6.75 10.4445" stroke="#033D59" stroke-width="1.13" stroke-linejoin="round"/>
</g>
</svg>
