<svg width="16" height="20" viewBox="0 0 16 20" fill="none" xmlns="http://www.w3.org/2000/svg">
<g id="elements">
<path id="Rectangle 2172" d="M0.916992 8.33329C0.916992 5.1906 0.916992 3.61925 1.95432 2.64294C2.99165 1.66663 4.66121 1.66663 8.00033 1.66663H8.64426C11.3619 1.66663 12.7208 1.66663 13.6644 2.33149C13.9348 2.52198 14.1748 2.7479 14.3772 3.00237C15.0837 3.89052 15.0837 5.16942 15.0837 7.72723V9.84844C15.0837 12.3178 15.0837 13.5524 14.6929 14.5385C14.0646 16.1238 12.736 17.3742 11.0517 17.9655C10.004 18.3333 8.69215 18.3333 6.06851 18.3333C4.56928 18.3333 3.81967 18.3333 3.22097 18.1231C2.25849 17.7853 1.49928 17.0707 1.1403 16.1648C0.916992 15.6014 0.916992 14.8958 0.916992 13.4848V8.33329Z" stroke="#00AAE1" stroke-width="1.5" stroke-linejoin="round"/>
<path id="Vector" d="M15.0833 10C15.0833 11.5341 13.8397 12.7778 12.3056 12.7778C11.7507 12.7778 11.0966 12.6806 10.5572 12.8251C10.0779 12.9535 9.70353 13.3279 9.5751 13.8072C9.43056 14.3466 9.52778 15.0007 9.52778 15.5556C9.52778 17.0897 8.28412 18.3333 6.75 18.3333" stroke="#00AAE1" stroke-width="1.5" stroke-linecap="round" stroke-linejoin="round"/>
<path id="Vector 4381" d="M4.66699 5.83325H10.5003" stroke="#00AAE1" stroke-width="1.5" stroke-linecap="round" stroke-linejoin="round"/>
<path id="Vector 4382" d="M4.66699 9.16663H7.16699" stroke="#00AAE1" stroke-width="1.5" stroke-linecap="round" stroke-linejoin="round"/>
</g>
</svg>
