<svg width="20" height="20" viewBox="0 0 20 20" fill="none" xmlns="http://www.w3.org/2000/svg">
<g id="elements">
<path id="Rectangle 2285" d="M17.5003 9.58341C17.5003 5.85146 17.5003 3.98549 16.341 2.82612C15.1816 1.66675 13.3156 1.66675 9.58366 1.66675C5.85171 1.66675 3.98573 1.66675 2.82636 2.82612C1.66699 3.98549 1.66699 5.85146 1.66699 9.58341C1.66699 13.3154 1.66699 15.1813 2.82636 16.3407C3.94176 17.4561 5.71117 17.4984 9.16699 17.5" stroke="#033D59" stroke-width="1.5" stroke-linecap="round"/>
<path id="Vector 4723" d="M1.66699 5.8335L17.5003 5.8335" stroke="#033D59" stroke-width="1.5" stroke-linejoin="round"/>
<path id="Vector" d="M8.33333 13.3333L9.58333 13.3333M5 13.3333H5.83333M8.33333 10L13.3333 10M5 10H5.83333" stroke="#033D59" stroke-width="1.5" stroke-linecap="round" stroke-linejoin="round"/>
<path id="Vector_2" d="M12.7901 18.2132L12.6333 17.4798H12.6333L12.7901 18.2132ZM11.7872 17.2103L12.5206 17.3671L11.7872 17.2103ZM12.5176 15.0932L11.9872 14.5628L12.5176 15.0932ZM14.9072 17.4829L14.3769 16.9525L14.9072 17.4829ZM18.1639 12.8978L18.8134 12.5228V12.5228L18.1639 12.8978ZM17.6638 14.7263L18.1941 15.2567H18.1941L17.6638 14.7263ZM18.1639 14.1651L18.8134 14.5401L18.1639 14.1651ZM17.1026 11.8365L17.4776 11.187V11.187L17.1026 11.8365ZM15.2741 12.3366L15.8044 12.867L15.2741 12.3366ZM15.8353 11.8365L15.4603 11.187V11.187L15.8353 11.8365ZM17.1334 14.196L14.3769 16.9525L15.4376 18.0132L18.1941 15.2567L17.1334 14.196ZM13.0479 15.6235L15.8044 12.867L14.7438 11.8063L11.9872 14.5628L13.0479 15.6235ZM12.6333 17.4798C12.4866 17.5111 12.3715 17.5357 12.2732 17.554C12.1737 17.5725 12.113 17.5803 12.0754 17.5827C12.0363 17.5852 12.054 17.5793 12.1003 17.5913C12.1591 17.6065 12.2329 17.6421 12.2956 17.7048L11.2349 18.7655C11.5424 19.073 11.9244 19.0953 12.1706 19.0797C12.4033 19.0649 12.6838 19.0029 12.9469 18.9466L12.6333 17.4798ZM11.0538 17.0535C10.9975 17.3166 10.9355 17.5972 10.9207 17.8298C10.9051 18.076 10.9274 18.458 11.2349 18.7655L12.2956 17.7048C12.3583 17.7676 12.3939 17.8413 12.4091 17.9001C12.4211 17.9464 12.4152 17.9641 12.4177 17.925C12.4201 17.8874 12.428 17.8267 12.4465 17.7273C12.4647 17.6289 12.4893 17.5138 12.5206 17.3671L11.0538 17.0535ZM17.1334 12.867C17.4454 13.1789 17.4927 13.2354 17.5144 13.2728L18.8134 12.5228C18.6682 12.2713 18.4377 12.05 18.1941 11.8063L17.1334 12.867ZM18.1941 15.2567C18.4377 15.013 18.6682 14.7917 18.8134 14.5401L17.5144 13.7901C17.4927 13.8276 17.4454 13.8841 17.1334 14.196L18.1941 15.2567ZM17.5144 13.2728C17.6068 13.4329 17.6068 13.6301 17.5144 13.7901L18.8134 14.5401C19.1737 13.916 19.1737 13.147 18.8134 12.5228L17.5144 13.2728ZM18.1941 11.8063C17.9504 11.5627 17.7291 11.3323 17.4776 11.187L16.7276 12.4861C16.765 12.5077 16.8215 12.555 17.1334 12.867L18.1941 11.8063ZM15.8044 12.867C16.1163 12.555 16.1728 12.5077 16.2103 12.4861L15.4603 11.187C15.2087 11.3323 14.9874 11.5627 14.7438 11.8063L15.8044 12.867ZM17.4776 11.187C16.8534 10.8267 16.0844 10.8267 15.4603 11.187L16.2103 12.4861C16.3703 12.3936 16.5675 12.3936 16.7276 12.4861L17.4776 11.187ZM14.3769 16.9525C14.2364 17.093 14.0383 17.1908 13.7323 17.2689C13.579 17.308 13.4141 17.3386 13.226 17.3711C13.0467 17.4021 12.8359 17.4364 12.6333 17.4798L12.9469 18.9466C13.112 18.9113 13.2808 18.8839 13.4813 18.8492C13.673 18.8161 13.8882 18.7772 14.1034 18.7223C14.5345 18.6122 15.0273 18.4234 15.4376 18.0132L14.3769 16.9525ZM12.5206 17.3671C12.564 17.1645 12.5983 16.9537 12.6293 16.7744C12.6618 16.5863 12.6924 16.4214 12.7315 16.2681C12.8096 15.9621 12.9074 15.764 13.0479 15.6235L11.9872 14.5628C11.577 14.9731 11.3882 15.4659 11.2781 15.897C11.2232 16.1122 11.1843 16.3274 11.1512 16.5191C11.1165 16.7196 11.0891 16.8885 11.0538 17.0535L12.5206 17.3671Z" fill="#033D59"/>
</g>
</svg>
