<svg width="18" height="14" viewBox="0 0 18 14" fill="none" xmlns="http://www.w3.org/2000/svg">
<g id="elements">
<path id="Vector 7163" d="M1.5 2.5L6.68477 5.43773C8.5962 6.52076 9.4038 6.52076 11.3152 5.43773L16.5 2.5" stroke="#033D59" stroke-width="1.13" stroke-linejoin="round"/>
<path id="Vector" d="M1.51182 8.10672C1.56086 10.4059 1.58537 11.5554 2.43372 12.407C3.28206 13.2586 4.46275 13.2883 6.82412 13.3476C8.27948 13.3841 9.72052 13.3841 11.1759 13.3476C13.5373 13.2883 14.7179 13.2586 15.5663 12.407C16.4146 11.5554 16.4391 10.4059 16.4882 8.10672C16.5039 7.36745 16.5039 6.63256 16.4882 5.8933C16.4391 3.59415 16.4146 2.44457 15.5663 1.593C14.7179 0.741423 13.5373 0.711758 11.1759 0.652427C9.72052 0.61586 8.27948 0.615858 6.82412 0.652422C4.46275 0.711748 3.28206 0.741411 2.43371 1.59299C1.58537 2.44456 1.56085 3.59413 1.51182 5.89328C1.49606 6.63255 1.49606 7.36745 1.51182 8.10672Z" stroke="#033D59" stroke-width="1.13" stroke-linejoin="round"/>
</g>
</svg>
