<?xml version="1.0" encoding="UTF-8"?>
<svg id="Layer_2" data-name="Layer 2" xmlns="http://www.w3.org/2000/svg" viewBox="0 0 14.76 16.28">
  <defs>
    <style>
      .cls-1 {
        fill: #0099bc;
      }
    </style>
  </defs>
  <g id="Layer_1-2" data-name="Layer 1">
    <g id="elements">
      <g id="Rectangle_2176" data-name="Rectangle 2176">
        <path class="cls-1" d="m7.38,16.28h-.4c-3.17,0-4.76,0-5.86-1.04-1.12-1.05-1.12-2.57-1.12-5.58v-3.03C0,3.61,0,2.1,1.12,1.04,2.22,0,3.81,0,6.98,0h.8c3.17,0,4.76,0,5.86,1.04,1.12,1.06,1.12,2.57,1.12,5.58v.76c0,.31-.25.57-.57.57s-.57-.25-.57-.57v-.76c0-2.69,0-4.04-.76-4.76-.78-.73-2.22-.73-5.09-.73h-.8c-2.87,0-4.31,0-5.08.73-.76.72-.76,2.07-.76,4.76v3.03c0,2.69,0,4.04.76,4.76.78.73,2.22.73,5.08.73h.4c.31,0,.57.25.57.57s-.25.57-.57.57Z"/>
      </g>
      <g id="Vector_4435" data-name="Vector 4435">
        <path class="cls-1" d="m10.41,4.92h-6.06c-.31,0-.57-.25-.57-.57s.25-.57.57-.57h6.06c.31,0,.57.25.57.57s-.25.57-.57.57Z"/>
      </g>
      <g id="Vector_4436" data-name="Vector 4436">
        <path class="cls-1" d="m8.14,8.71h-3.79c-.31,0-.57-.25-.57-.57s.25-.57.57-.57h3.79c.31,0,.57.25.57.57s-.25.57-.57.57Z"/>
      </g>
      <g id="Vector_4433" data-name="Vector 4433">
        <path class="cls-1" d="m10.89,16.28c-.98,0-1.81-.78-1.81-1.7v-2.65c0-1.34,1.21-2.84,2.84-2.84s2.84,1.5,2.84,2.84v2.76c0,.31-.25.57-.57.57s-.57-.25-.57-.57v-2.76c0-.77-.76-1.7-1.7-1.7s-1.7.93-1.7,1.7v2.65c0,.27.29.57.67.57s.67-.31.67-.57v-2.07c0-.31.25-.57.57-.57s.57.25.57.57v2.07c0,.92-.83,1.7-1.81,1.7Z"/>
      </g>
    </g>
  </g>
</svg>