<?xml version="1.0" encoding="UTF-8"?>
<svg id="Layer_2" data-name="Layer 2" xmlns="http://www.w3.org/2000/svg" viewBox="0 0 17.21 20">
  <defs>
    <style>
      .cls-1 {
        fill: #00323e;
      }
    </style>
  </defs>
  <g id="Layer_1-2" data-name="Layer 1">
    <g>
      <path class="cls-1" d="m17.21,7.46c0-3.01,0-4.53-.94-5.71-.27-.34-.59-.64-.94-.89-1.23-.87-2.83-.87-6.01-.87h-.72C4.7,0,2.74,0,1.38,1.28c-1.38,1.3-1.38,3.16-1.38,6.86v5.75c0,1.66,0,2.5.3,3.25.48,1.2,1.47,2.14,2.74,2.59.78.27,1.66.27,3.41.27.27,0,.51,0,.76,0,0,0,0,0,0,0,0,0,0,0,0,0,2.49,0,3.86-.04,5.03-.45,2.07-.73,3.71-2.27,4.48-4.23.48-1.2.49-2.6.49-5.32,0,0,0,0,0,0,0,0,0,0,0,0,0-.06,0-.11,0-.17v-2.37ZM3.5,18.41c-.88-.31-1.58-.96-1.91-1.78-.2-.5-.2-1.25-.2-2.73v-5.75c0-3.3,0-4.96.94-5.84.96-.9,2.73-.9,6.27-.9h.72c2.88,0,4.33,0,5.2.62.25.17.46.38.65.61.64.8.64,2.15.64,4.84v2.37c0,.06,0,.11,0,.17,0,1.32-1.08,2.4-2.4,2.4-.16,0-.34,0-.51-.02-.51-.03-1.08-.05-1.62.09-.78.21-1.38.82-1.59,1.59-.15.54-.12,1.11-.09,1.62,0,.18.02.35.02.51,0,1.32-1.08,2.4-2.4,2.4-.25,0-.49,0-.77,0-1.59,0-2.39,0-2.95-.19Zm8.28-.18c-.44.15-.95.24-1.59.29.5-.64.82-1.45.82-2.33,0-.18,0-.38-.02-.58-.02-.43-.04-.87.05-1.2.08-.29.31-.52.6-.6.33-.09.77-.07,1.19-.05.2,0,.39.02.58.02.89,0,1.71-.32,2.35-.84-.05.79-.15,1.37-.34,1.85-.63,1.58-1.96,2.83-3.65,3.42Z"/>
      <path class="cls-1" d="m4.88,6.05h6.51c.39,0,.7-.31.7-.7s-.31-.7-.7-.7h-6.51c-.39,0-.7.31-.7.7s.31.7.7.7Z"/>
      <path class="cls-1" d="m8.37,9.07c0-.39-.31-.7-.7-.7h-2.79c-.39,0-.7.31-.7.7s.31.7.7.7h2.79c.39,0,.7-.31.7-.7Z"/>
    </g>
  </g>
</svg>