<?xml version="1.0" encoding="utf-8"?>
<!-- Generator: Adobe Illustrator 27.1.0, SVG Export Plug-In . SVG Version: 6.00 Build 0)  -->
<svg version="1.1" id="Layer_2_00000177456858309524388970000006285348366894293162_"
	 xmlns="http://www.w3.org/2000/svg" xmlns:xlink="http://www.w3.org/1999/xlink" x="0px" y="0px" viewBox="0 0 119.7 35.5"
	 style="enable-background:new 0 0 119.7 35.5;" xml:space="preserve">
<style type="text/css">
	.st0{clip-path:url(#SVGID_00000134928501685039537100000014162997859979834540_);}
	.st1{clip-path:url(#SVGID_00000086672894889683967090000012108995604673514411_);}
	.st2{fill:#A6A5A5;}
	.st3{fill:#FFFFFF;}
	.st4{fill:#EA4435;}
	.st5{fill:#F9BC15;}
	.st6{fill:#547DBF;}
	.st7{fill:#33A851;}
</style>
<g id="Layer_1-2">
	<g>
		<defs>
			<rect id="SVGID_1_" width="119.7" height="35.5"/>
		</defs>
		<clipPath id="SVGID_00000113311409990389813180000005431802657197920920_">
			<use xlink:href="#SVGID_1_"  style="overflow:visible;"/>
		</clipPath>
		<g style="clip-path:url(#SVGID_00000113311409990389813180000005431802657197920920_);">
			<g>
				<defs>
					<rect id="SVGID_00000113332187724002308680000009205472881935510156_" width="119.7" height="35.5"/>
				</defs>
				<clipPath id="SVGID_00000142870731789324624890000014391696204252050094_">
					<use xlink:href="#SVGID_00000113332187724002308680000009205472881935510156_"  style="overflow:visible;"/>
				</clipPath>
				<g style="clip-path:url(#SVGID_00000142870731789324624890000014391696204252050094_);">
					<path d="M115.2,35.5H4.4C2,35.5,0,33.5,0,31V4.4C0,2,2,0,4.4,0h110.8c2.4,0,4.4,2,4.4,4.4V31C119.7,33.5,117.7,35.5,115.2,35.5
						"/>
					<path class="st2" d="M115.2,0.7c2.1,0,3.7,1.7,3.7,3.7V31c0,2.1-1.7,3.7-3.7,3.7H4.4c-2.1,0-3.7-1.7-3.7-3.7V4.4
						c0-2.1,1.7-3.7,3.7-3.7H115.2L115.2,0.7z M115.2,0H4.4C2,0,0,2,0,4.4V31c0,2.4,2,4.4,4.4,4.4h110.8c2.4,0,4.4-2,4.4-4.4V4.4
						C119.7,2,117.7,0,115.2,0"/>
					<path class="st3" d="M60.4,19.3c-2.1,0-3.8,1.6-3.8,3.8s1.7,3.8,3.8,3.8c2.1,0,3.8-1.6,3.8-3.8S62.5,19.3,60.4,19.3 M60.4,25.3
						c-1.1,0-2.1-0.9-2.1-2.3s1-2.3,2.1-2.3s2.1,0.9,2.1,2.3S61.5,25.3,60.4,25.3 M52.1,19.3c-2.1,0-3.8,1.6-3.8,3.8
						s1.7,3.8,3.8,3.8c2.1,0,3.8-1.6,3.8-3.8S54.2,19.3,52.1,19.3 M52.1,25.3c-1.1,0-2.1-0.9-2.1-2.3s1-2.3,2.1-2.3
						c1.1,0,2.1,0.9,2.1,2.3S53.3,25.3,52.1,25.3 M42.3,20.4V22h3.8c-0.1,0.9-0.4,1.6-0.9,2c-0.6,0.6-1.4,1.2-3,1.2
						c-2.4,0-4.2-1.9-4.2-4.3s1.8-4.3,4.2-4.3c1.3,0,2.2,0.5,2.9,1.1l1.1-1.1c-1-0.9-2.2-1.6-4-1.6c-3.2,0-5.9,2.6-5.9,5.9
						s2.7,5.9,5.9,5.9c1.7,0,3.1-0.6,4.1-1.6c1.1-1.1,1.4-2.5,1.4-3.7c0-0.4,0-0.7-0.1-1L42.3,20.4L42.3,20.4z M82.5,21.7
						c-0.3-0.8-1.3-2.4-3.2-2.4c-2,0-3.6,1.5-3.6,3.8c0,2.1,1.6,3.8,3.7,3.8c1.7,0,2.7-1.1,3.1-1.7l-1.3-0.9c-0.4,0.6-1,1-1.9,1
						s-1.4-0.4-1.8-1.1l5-2.1L82.5,21.7L82.5,21.7z M77.3,22.9c0-1.5,1.1-2.2,2-2.2c0.7,0,1.2,0.3,1.4,0.8L77.3,22.9L77.3,22.9z
						 M73.2,26.6h1.7V15.5h-1.7V26.6z M70.5,20.1L70.5,20.1c-0.4-0.4-1.1-0.8-2-0.8c-1.9,0-3.6,1.7-3.6,3.8s1.7,3.8,3.6,3.8
						c0.9,0,1.6-0.4,2-0.9h0.1v0.5c0,1.4-0.8,2.2-2,2.2c-1,0-1.6-0.7-1.9-1.3L65.2,28c0.4,1,1.5,2.2,3.3,2.2c1.9,0,3.6-1.1,3.6-3.9
						v-6.8h-1.6V20.1L70.5,20.1z M68.6,25.3c-1.1,0-2.1-1-2.1-2.3c0-1.3,1-2.3,2.1-2.3c1.1,0,2,1,2,2.3
						C70.6,24.4,69.8,25.3,68.6,25.3 M90.2,15.5h-4v11.1h1.7v-4.2h2.3c1.8,0,3.6-1.3,3.6-3.4S92.1,15.5,90.2,15.5 M90.3,20.9h-2.4
						v-3.8h2.4c1.2,0,1.9,1,1.9,1.9S91.5,20.8,90.3,20.9 M100.5,19.3c-1.2,0-2.4,0.5-3,1.7l1.5,0.6c0.3-0.6,0.9-0.8,1.5-0.8
						c0.9,0,1.7,0.5,1.7,1.4v0.1c-0.3-0.2-0.9-0.4-1.7-0.4c-1.6,0-3.2,0.9-3.2,2.5c0,1.5,1.3,2.4,2.8,2.4c1.1,0,1.7-0.5,2.1-1.1h0.1
						v0.9h1.6v-4.2C103.9,20.4,102.4,19.3,100.5,19.3 M100.3,25.3c-0.5,0-1.3-0.3-1.3-0.9c0-0.9,0.9-1.2,1.8-1.2
						c0.7,0,1.1,0.2,1.5,0.4C102.1,24.6,101.3,25.3,100.3,25.3 M109.7,19.5l-1.9,4.8h-0.1l-2-4.8H104l3,6.7l-1.7,3.7h1.7l4.5-10.4
						H109.7L109.7,19.5z M94.8,26.6h1.7V15.5h-1.7V26.6z"/>
					<path class="st4" d="M18.4,17.2l-9.4,10c0,0,0,0,0,0c0.3,1.1,1.3,1.9,2.5,1.9c0.5,0,0.9-0.1,1.3-0.4l0,0l10.6-6.1L18.4,17.2
						L18.4,17.2z"/>
					<path class="st5" d="M27.9,15.5L27.9,15.5l-4.6-2.7l-5.2,4.6l5.2,5.2l4.6-2.6c0.8-0.4,1.3-1.3,1.3-2.2
						C29.2,16.8,28.7,15.9,27.9,15.5"/>
					<path class="st6" d="M8.9,8.2C8.9,8.4,8.8,8.7,8.8,8.9v17.7c0,0.2,0,0.4,0.1,0.7l9.8-9.8L8.9,8.2L8.9,8.2z"/>
					<path class="st7" d="M18.4,17.7l4.9-4.9L12.7,6.7c-0.4-0.2-0.8-0.4-1.3-0.4c-1.2,0-2.2,0.8-2.5,1.9c0,0,0,0,0,0L18.4,17.7
						L18.4,17.7z"/>
				</g>
			</g>
			<g>
				<path class="st3" d="M37,6.1h1.8c0.6,0,1.1,0.1,1.5,0.3c0.4,0.2,0.8,0.6,1,1c0.2,0.4,0.3,0.9,0.3,1.4c0,0.5-0.1,1-0.3,1.4
					c-0.2,0.4-0.6,0.7-1,1c-0.4,0.2-0.9,0.3-1.5,0.3H37V6.1L37,6.1z M38.8,10.8c0.6,0,1.1-0.2,1.5-0.5c0.3-0.3,0.5-0.8,0.5-1.4
					c0-0.6-0.2-1.1-0.5-1.4c-0.3-0.3-0.8-0.5-1.5-0.5h-0.9v3.9L38.8,10.8L38.8,10.8z"/>
				<path class="st3" d="M42.7,6.1h0.8v5.5h-0.8V6.1z"/>
				<path class="st3" d="M45.3,11.4c-0.4-0.3-0.6-0.6-0.8-1.1l0.8-0.3c0.1,0.3,0.2,0.6,0.4,0.8c0.2,0.2,0.5,0.3,0.8,0.3
					c0.3,0,0.5-0.1,0.7-0.2c0.2-0.1,0.3-0.3,0.3-0.6c0-0.2-0.1-0.4-0.3-0.6c-0.2-0.2-0.5-0.3-0.9-0.4L46.1,9
					c-0.4-0.1-0.7-0.3-0.9-0.6c-0.3-0.2-0.4-0.6-0.4-1c0-0.3,0.1-0.5,0.2-0.8c0.1-0.2,0.4-0.4,0.6-0.5C45.9,6.1,46.2,6,46.5,6
					c0.5,0,0.9,0.1,1.1,0.4c0.3,0.2,0.5,0.5,0.6,0.8l-0.8,0.3c-0.1-0.2-0.2-0.3-0.3-0.5c-0.2-0.1-0.4-0.2-0.6-0.2S46.1,6.8,45.9,7
					c-0.2,0.1-0.3,0.3-0.3,0.5c0,0.2,0.1,0.3,0.2,0.5c0.2,0.1,0.4,0.2,0.7,0.4l0.4,0.1c0.5,0.2,0.8,0.4,1.1,0.6
					c0.3,0.3,0.4,0.6,0.4,1c0,0.4-0.1,0.7-0.3,0.9c-0.2,0.2-0.4,0.4-0.7,0.5s-0.6,0.2-0.9,0.2C46.1,11.8,45.7,11.6,45.3,11.4
					L45.3,11.4z"/>
				<path class="st3" d="M49.5,6.1h1.9c0.3,0,0.6,0.1,0.9,0.2c0.3,0.1,0.5,0.3,0.7,0.6c0.2,0.3,0.2,0.5,0.2,0.9S53.2,8.4,53,8.7
					c-0.2,0.3-0.4,0.5-0.7,0.6c-0.3,0.1-0.6,0.2-0.9,0.2h-1v2.1h-0.8V6.1z M51.5,8.7c0.3,0,0.5-0.1,0.7-0.3c0.2-0.2,0.3-0.4,0.3-0.6
					s-0.1-0.4-0.3-0.6C52,7,51.7,6.9,51.5,6.9h-1.1v1.8C50.4,8.7,51.5,8.7,51.5,8.7z"/>
				<path class="st3" d="M55.4,11.4c-0.4-0.3-0.8-0.6-1-1S54,9.4,54,8.9s0.1-1,0.4-1.5c0.3-0.4,0.6-0.8,1-1C55.8,6.1,56.3,6,56.8,6
					c0.5,0,1,0.1,1.5,0.4c0.4,0.3,0.8,0.6,1,1s0.4,0.9,0.4,1.5s-0.1,1-0.4,1.5c-0.3,0.4-0.6,0.8-1,1c-0.4,0.3-0.9,0.4-1.5,0.4
					S55.8,11.6,55.4,11.4z M57.8,10.7c0.3-0.2,0.5-0.4,0.7-0.7c0.2-0.3,0.3-0.7,0.3-1.1c0-0.4-0.1-0.8-0.3-1.1
					c-0.2-0.3-0.4-0.6-0.7-0.7c-0.3-0.2-0.6-0.3-1-0.3s-0.7,0.1-1,0.3c-0.3,0.2-0.5,0.4-0.7,0.7c-0.2,0.3-0.3,0.7-0.3,1.1
					c0,0.4,0.1,0.8,0.3,1.1c0.2,0.3,0.4,0.6,0.7,0.7c0.3,0.2,0.6,0.3,1,0.3S57.5,10.9,57.8,10.7z"/>
				<path class="st3" d="M60.8,6.1h1l2.5,4.1h0l0-1.1v-3h0.8v5.5h-0.9l-2.6-4.3h0l0,1.1v3.2h-0.8V6.1L60.8,6.1z"/>
				<path class="st3" d="M66.5,6.1h0.8v5.5h-0.8V6.1z"/>
				<path class="st3" d="M68.7,6.1h2.1c0.3,0,0.6,0.1,0.8,0.2c0.3,0.1,0.5,0.3,0.6,0.5c0.1,0.2,0.2,0.5,0.2,0.7
					c0,0.3-0.1,0.5-0.2,0.7c-0.1,0.2-0.3,0.4-0.5,0.5v0c0.3,0.1,0.5,0.3,0.7,0.5c0.2,0.2,0.3,0.5,0.3,0.8c0,0.3-0.1,0.6-0.2,0.8
					c-0.2,0.2-0.4,0.4-0.6,0.5c-0.3,0.1-0.6,0.2-0.9,0.2h-2.2L68.7,6.1L68.7,6.1z M70.8,8.4c0.3,0,0.5-0.1,0.6-0.2
					c0.2-0.2,0.2-0.3,0.2-0.5s-0.1-0.4-0.2-0.5C71.2,7,71,6.9,70.8,6.9h-1.2v1.5L70.8,8.4L70.8,8.4z M70.9,10.9
					c0.3,0,0.5-0.1,0.6-0.2c0.2-0.2,0.2-0.4,0.2-0.6s-0.1-0.4-0.3-0.6c-0.2-0.2-0.4-0.2-0.7-0.2h-1.3v1.7L70.9,10.9L70.9,10.9z"/>
				<path class="st3" d="M73.8,6.1h0.8v4.7H77v0.8h-3.2V6.1z"/>
				<path class="st3" d="M77.9,6.1h3.3v0.8h-2.5v1.6H81v0.8h-2.3v1.6h2.5v0.8h-3.3V6.1z"/>
				<path class="st3" d="M84.1,6.1h3.3v0.8h-2.5v1.6h2.3v0.8h-2.3v1.6h2.5v0.8h-3.3V6.1z"/>
				<path class="st3" d="M88.6,6.1h1l2.5,4.1h0l0-1.1v-3H93v5.5h-0.9l-2.6-4.3h0l0,1.1v3.2h-0.8V6.1L88.6,6.1z"/>
			</g>
		</g>
	</g>
</g>
</svg>
