<svg width="18" height="22" viewBox="0 0 18 22" fill="none" xmlns="http://www.w3.org/2000/svg">
<g id="elements">
<path id="Vector" d="M13.2718 1.41372C11.0764 0.224349 9.50003 1.97761 9.50003 1.97761C9.50003 1.97761 7.92359 0.224343 5.72816 1.41371C3.06907 2.85427 2.87812 8.49556 9.50003 11C16.1219 8.49556 15.9309 2.85427 13.2718 1.41372Z" stroke="#00AAE1" stroke-width="1.5" stroke-linecap="round"/>
<path id="Vector_2" d="M1 13H4L6.5 14.3751H7.5C9 14.3751 10 15.524 10 16.4998L7 17.4998L4 16.4998M9.99931 16L14.2103 14.5963C15.2149 14.2615 16.3064 14.7677 16.6997 15.7509L16.9993 16.5L7.99931 21L1 19.0199" stroke="#00AAE1" stroke-width="1.5"/>
</g>
</svg>
