<svg width="23" height="22" viewBox="0 0 23 22" fill="none" xmlns="http://www.w3.org/2000/svg">
<g id="elements">
<path id="Vector" d="M15.333 17.3937C15.333 15.8672 13.5421 15 11.333 15C9.12387 15 7.33301 15.6716 7.33301 16.5C7.33301 17.3284 9.12387 18 11.333 18C12.9899 18 14.333 18.6716 14.333 19.5C14.333 20.3284 12.9899 21 11.333 21C10.0481 21 8.52432 20.2887 8.35961 19.3553" stroke="#00AAE1" stroke-width="1.5" stroke-linejoin="round"/>
<path id="Ellipse 1695" d="M12.833 2.5C12.833 3.32843 12.1614 4 11.333 4C10.5046 4 9.83301 3.32843 9.83301 2.5C9.83301 1.67157 10.5046 1 11.333 1C12.1614 1 12.833 1.67157 12.833 2.5Z" stroke="#00AAE1" stroke-width="1.5" stroke-linejoin="round"/>
<path id="Vector 5545" d="M11.333 4L11.333 15" stroke="#00AAE1" stroke-width="1.5" stroke-linejoin="round"/>
<path id="Vector 5543" d="M15.5748 4C14.6823 6.11465 12.2657 9.33353 11.333 9.73775C15.833 14.7541 20.4991 10.1727 21.333 8.00414C20.4501 8.00414 17.2832 6.09332 15.5748 4Z" stroke="#00AAE1" stroke-width="1.5" stroke-linejoin="round"/>
<path id="Vector 5544" d="M7.09125 4C7.98375 6.11465 10.4003 9.33353 11.333 9.73775C6.83301 14.7541 2.16695 10.1727 1.33301 8.00414C2.21596 8.00414 5.38277 6.09332 7.09125 4Z" stroke="#00AAE1" stroke-width="1.5" stroke-linejoin="round"/>
</g>
</svg>
