<svg width="12" height="16" viewBox="0 0 12 16" fill="none" xmlns="http://www.w3.org/2000/svg">
<g id="elements">
<path id="Ellipse 1971" d="M8.35758 6.66646C8.35758 7.95513 7.31292 8.9998 6.02425 8.9998C4.73559 8.9998 3.69092 7.95513 3.69092 6.66646C3.69092 5.3778 4.73559 4.33313 6.02425 4.33313C7.31292 4.33313 8.35758 5.3778 8.35758 6.66646Z" stroke="#033D59" stroke-linejoin="round"/>
<path id="Vector" d="M6.00001 1.33331C3.05449 1.33331 0.666672 3.7452 0.666672 6.72042C0.666672 8.42165 1.33334 9.74443 2.66667 10.926C3.60648 11.7588 5.31642 13.5453 6.00001 14.6666C6.71819 13.5676 8.39353 11.7588 9.33334 10.926C10.6667 9.74443 11.3333 8.42165 11.3333 6.72042C11.3333 3.7452 8.94552 1.33331 6.00001 1.33331Z" stroke="#033D59" stroke-linejoin="round"/>
</g>
</svg>
