<?xml version="1.0" encoding="UTF-8"?>
<svg id="Layer_2" data-name="Layer 2" xmlns="http://www.w3.org/2000/svg" viewBox="0 0 200 94.8">
  <g id="Capa_1" data-name="Capa 1">
    <g>
      <g>
        <g>
          <path d="m113.96,44.91c-.77,0-1.48-.13-2.13-.38-.65-.25-1.21-.61-1.69-1.08-.48-.47-.86-1.01-1.12-1.63-.27-.62-.4-1.31-.4-2.06s.13-1.44.4-2.06c.27-.62.64-1.16,1.13-1.63.49-.47,1.05-.83,1.7-1.08.65-.25,1.36-.38,2.13-.38.82,0,1.57.14,2.24.42.68.28,1.25.7,1.72,1.25l-1.2,1.13c-.37-.39-.78-.68-1.23-.88-.45-.2-.93-.29-1.44-.29s-1,.09-1.44.26-.81.42-1.13.73-.57.69-.75,1.12c-.18.43-.27.9-.27,1.42s.09.99.27,1.42c.18.43.43.8.75,1.12.32.32.7.56,1.13.73.43.17.91.26,1.44.26s1-.1,1.44-.29c.45-.2.86-.49,1.23-.9l1.2,1.13c-.47.55-1.04.97-1.72,1.26-.68.29-1.43.43-2.26.43Z" style="fill: #00aae1; stroke-width: 0px;"/>
          <path d="m122.56,44.86c-.65,0-1.22-.12-1.72-.37s-.88-.62-1.16-1.12-.42-1.13-.42-1.9v-4.37h1.8v4.14c0,.68.16,1.19.47,1.52.31.34.75.51,1.31.51.42,0,.79-.09,1.1-.26.31-.17.56-.43.73-.77s.26-.77.26-1.27v-3.87h1.79v7.65h-1.7v-2.08l.3.64c-.26.49-.63.86-1.13,1.13-.5.27-1.04.4-1.63.4Z" style="fill: #00aae1; stroke-width: 0px;"/>
          <path d="m128.77,36.07l1.93-1.96h2.11l-2.5,1.96h-1.54Zm.31,8.69v-7.65h1.77v7.65h-1.77Z" style="fill: #00aae1; stroke-width: 0px;"/>
          <path d="m136.43,44.86c-.73,0-1.39-.16-1.98-.49-.59-.32-1.05-.78-1.38-1.37s-.5-1.28-.5-2.07.17-1.47.5-2.06c.33-.59.79-1.05,1.38-1.37.59-.32,1.25-.49,1.98-.49.64,0,1.21.14,1.71.42s.9.71,1.2,1.29.44,1.32.44,2.21-.14,1.62-.43,2.21c-.29.58-.68,1.01-1.18,1.3-.5.28-1.08.42-1.75.42Zm.21-1.52c.43,0,.81-.1,1.15-.29.34-.2.61-.48.81-.84s.31-.79.31-1.27-.1-.91-.31-1.27-.48-.63-.81-.83c-.34-.2-.72-.29-1.15-.29s-.81.1-1.15.29c-.34.2-.61.47-.81.83s-.31.78-.31,1.27.1.9.31,1.27.48.65.81.84c.34.2.72.29,1.15.29Zm2.33,1.42v-1.8l.04-2.03-.14-2.03v-4.75h1.8v10.62h-1.7Z" style="fill: #00aae1; stroke-width: 0px;"/>
          <path d="m145.31,44.86c-.57,0-1.07-.1-1.5-.29-.43-.2-.76-.47-.99-.82-.23-.35-.35-.74-.35-1.18s.1-.82.31-1.16c.2-.34.54-.62,1.01-.82.47-.2,1.09-.3,1.86-.3h2.22v1.19h-2.09c-.6,0-1.01.1-1.22.29-.21.2-.32.44-.32.74,0,.31.13.57.39.76.26.19.61.29,1.07.29s.83-.1,1.18-.3.6-.5.76-.89l.29,1.07c-.17.45-.48.8-.91,1.05-.44.25-1,.37-1.69.37Zm2.4-.1v-1.56l-.09-.31v-2.71c0-.52-.16-.93-.48-1.22-.32-.29-.8-.44-1.45-.44-.42,0-.83.07-1.24.2-.41.13-.76.32-1.06.56l-.7-1.3c.42-.32.91-.55,1.47-.72.56-.16,1.15-.24,1.76-.24,1.11,0,1.97.27,2.57.8.6.53.9,1.36.9,2.46v4.48h-1.69Z" style="fill: #00aae1; stroke-width: 0px;"/>
          <path d="m150.67,38.61v-1.43h5.09v1.43h-5.09Zm3.89,6.26c-.84,0-1.49-.22-1.94-.65-.46-.43-.69-1.07-.69-1.91v-6.87h1.77v6.82c0,.36.09.64.29.84.19.2.46.3.8.3.39,0,.71-.1.97-.31l.51,1.27c-.22.17-.48.3-.79.39-.3.09-.61.13-.93.13Z" style="fill: #00aae1; stroke-width: 0px;"/>
          <path d="m161.07,44.86c-.85,0-1.59-.17-2.22-.51-.63-.34-1.12-.8-1.47-1.39-.35-.59-.52-1.26-.52-2.03s.17-1.44.51-2.03c.34-.59.81-1.05,1.4-1.39.6-.34,1.27-.51,2.04-.51s1.41.16,1.99.49c.58.33,1.04.79,1.37,1.38.33.59.5,1.29.5,2.1,0,.07,0,.15,0,.25,0,.1-.01.19-.02.26h-6.36v-1.19h5.42l-.71.37c0-.43-.08-.81-.26-1.15-.19-.34-.44-.6-.76-.79-.32-.19-.71-.28-1.14-.28s-.81.09-1.15.28c-.34.19-.6.45-.78.79-.18.34-.27.74-.27,1.19v.29c0,.46.1.86.31,1.22.2.35.5.63.88.82.38.2.82.29,1.33.29.43,0,.81-.07,1.16-.21.34-.14.65-.35.91-.63l.97,1.12c-.35.4-.79.71-1.31.92-.52.21-1.11.32-1.78.32Z" style="fill: #00aae1; stroke-width: 0px;"/>
          <path d="m109.33,58.69v-10.02h4.39c1.07,0,2.01.21,2.84.62.82.41,1.46,1,1.92,1.75s.69,1.63.69,2.63-.23,1.88-.69,2.63-1.1,1.34-1.92,1.75c-.82.41-1.77.62-2.84.62h-4.39Zm1.86-1.57h2.41c.75,0,1.4-.14,1.95-.43.55-.29.98-.69,1.29-1.2.31-.52.46-1.12.46-1.8s-.16-1.31-.46-1.82c-.31-.51-.74-.9-1.29-1.19-.55-.29-1.2-.43-1.95-.43h-2.41v6.87Z" style="fill: #00aae1; stroke-width: 0px;"/>
          <path d="m124.39,58.79c-.77,0-1.46-.17-2.08-.51s-1.1-.8-1.45-1.4c-.35-.59-.53-1.26-.53-2.02s.18-1.45.53-2.03c.35-.58.83-1.04,1.44-1.38.61-.34,1.31-.51,2.09-.51s1.49.17,2.11.51c.61.34,1.1.8,1.44,1.38.35.58.52,1.26.52,2.03s-.17,1.44-.52,2.03c-.35.59-.83,1.05-1.45,1.39s-1.32.51-2.1.51Zm0-1.52c.44,0,.83-.1,1.17-.29.34-.2.61-.48.81-.84s.29-.79.29-1.27-.1-.91-.29-1.27c-.2-.36-.46-.63-.81-.83-.34-.2-.73-.29-1.16-.29s-.81.1-1.16.29c-.34.2-.61.47-.81.83-.2.36-.3.78-.3,1.27s.1.9.3,1.27c.2.37.47.65.81.84.34.2.72.29,1.14.29Z" style="fill: #00aae1; stroke-width: 0px;"/>
          <path d="m134.51,50.95c.62,0,1.16.12,1.64.36.47.24.85.61,1.13,1.1.28.5.42,1.13.42,1.9v4.38h-1.79v-4.15c0-.68-.16-1.18-.47-1.52-.31-.33-.76-.5-1.34-.5-.42,0-.79.09-1.11.26-.32.17-.57.43-.75.77-.18.34-.26.77-.26,1.28v3.87h-1.77v-7.65h1.7v2.08l-.3-.64c.26-.49.64-.86,1.15-1.13.51-.27,1.1-.4,1.76-.4Z" style="fill: #00aae1; stroke-width: 0px;"/>
          <path d="m143.21,58.79c-.73,0-1.39-.16-1.98-.49-.59-.32-1.05-.78-1.38-1.37s-.5-1.28-.5-2.07.17-1.47.5-2.06c.33-.59.79-1.05,1.38-1.37.59-.32,1.25-.49,1.98-.49.64,0,1.21.14,1.71.42s.9.71,1.2,1.29.44,1.32.44,2.21-.14,1.62-.43,2.21c-.29.58-.68,1.01-1.18,1.3s-1.08.42-1.75.42Zm.21-1.52c.43,0,.81-.1,1.15-.29s.61-.48.81-.84.31-.79.31-1.27-.1-.91-.31-1.27c-.2-.36-.48-.63-.81-.83s-.72-.29-1.15-.29-.81.1-1.15.29c-.34.2-.61.47-.81.83-.2.36-.31.78-.31,1.27s.1.9.31,1.27.48.65.81.84c.34.2.72.29,1.15.29Zm2.33,1.42v-1.8l.04-2.03-.14-2.03v-4.75h1.8v10.62h-1.7Z" style="fill: #00aae1; stroke-width: 0px;"/>
          <path d="m153.39,58.79c-.85,0-1.59-.17-2.22-.51s-1.12-.8-1.47-1.39-.52-1.26-.52-2.03.17-1.44.51-2.03c.34-.59.81-1.05,1.4-1.39.6-.34,1.27-.51,2.04-.51s1.41.16,1.99.49c.58.33,1.04.79,1.37,1.38.33.59.5,1.29.5,2.1,0,.07,0,.15,0,.25,0,.1-.01.19-.02.26h-6.36v-1.19h5.42l-.71.37c0-.43-.08-.81-.26-1.15-.19-.34-.44-.6-.76-.79-.32-.19-.71-.28-1.14-.28s-.81.09-1.15.28c-.34.19-.6.45-.78.79-.18.34-.27.74-.27,1.19v.29c0,.46.1.86.31,1.22.2.35.5.63.88.82s.82.29,1.33.29c.43,0,.81-.07,1.16-.21.34-.14.65-.35.91-.63l.97,1.12c-.35.4-.79.71-1.31.92-.52.21-1.11.32-1.78.32Z" style="fill: #00aae1; stroke-width: 0px;"/>
          <path d="m164.66,57.12h5.64v1.57h-7.5v-10.02h7.3v1.58h-5.44v6.87Zm-.14-4.28h4.97v1.53h-4.97v-1.53Z" style="fill: #00aae1; stroke-width: 0px;"/>
          <path d="m174.51,58.79c-.65,0-1.26-.08-1.84-.25-.58-.17-1.05-.37-1.4-.61l.69-1.36c.34.22.75.4,1.23.54.48.14.96.21,1.44.21.55,0,.96-.07,1.21-.22.25-.15.38-.35.38-.61,0-.21-.09-.37-.26-.48-.17-.11-.4-.19-.67-.25-.28-.06-.58-.11-.92-.16-.34-.05-.68-.11-1.01-.19-.34-.08-.65-.2-.92-.36-.28-.16-.5-.37-.67-.64-.17-.27-.26-.63-.26-1.07,0-.48.14-.9.41-1.25.28-.36.66-.64,1.16-.84.5-.2,1.09-.3,1.78-.3.5,0,1.02.06,1.55.18.53.12.97.28,1.32.49l-.7,1.36c-.35-.21-.71-.36-1.09-.44-.37-.08-.74-.12-1.1-.12-.53,0-.93.08-1.2.24-.27.16-.4.36-.4.61,0,.23.09.4.26.52.17.11.4.2.67.26.28.06.58.12.92.17.34.05.67.12,1.01.2.33.08.64.2.92.34.28.15.51.36.68.62.17.27.26.62.26,1.05,0,.49-.14.9-.42,1.25-.28.35-.68.62-1.19.82-.51.2-1.12.29-1.84.29Z" style="fill: #00aae1; stroke-width: 0px;"/>
          <path d="m178.48,52.54v-1.43h5.09v1.43h-5.09Zm3.89,6.26c-.84,0-1.49-.22-1.94-.65-.46-.43-.69-1.07-.69-1.91v-6.87h1.77v6.82c0,.36.09.64.29.84.19.2.46.3.8.3.39,0,.71-.1.97-.32l.51,1.27c-.22.17-.48.3-.79.39s-.61.13-.93.13Z" style="fill: #00aae1; stroke-width: 0px;"/>
          <path d="m188.88,58.79c-.85,0-1.59-.17-2.22-.51s-1.12-.8-1.47-1.39-.52-1.26-.52-2.03.17-1.44.51-2.03c.34-.59.81-1.05,1.4-1.39.6-.34,1.27-.51,2.04-.51s1.41.16,1.99.49c.58.33,1.04.79,1.37,1.38.33.59.5,1.29.5,2.1,0,.07,0,.15,0,.25,0,.1-.01.19-.02.26h-6.36v-1.19h5.42l-.71.37c0-.43-.08-.81-.26-1.15-.19-.34-.44-.6-.76-.79-.32-.19-.71-.28-1.14-.28s-.81.09-1.15.28c-.34.19-.6.45-.78.79-.18.34-.27.74-.27,1.19v.29c0,.46.1.86.31,1.22.2.35.5.63.88.82s.82.29,1.33.29c.43,0,.81-.07,1.16-.21.34-.14.65-.35.91-.63l.97,1.12c-.35.4-.79.71-1.31.92-.52.21-1.11.32-1.78.32Zm-1.51-8.79l1.93-1.96h2.11l-2.5,1.96h-1.54Z" style="fill: #00aae1; stroke-width: 0px;"/>
          <path d="m196.56,58.79c-.65,0-1.26-.08-1.84-.25-.58-.17-1.05-.37-1.4-.61l.69-1.36c.34.22.75.4,1.23.54.48.14.96.21,1.44.21.55,0,.96-.07,1.21-.22.25-.15.38-.35.38-.61,0-.21-.09-.37-.26-.48-.17-.11-.4-.19-.67-.25-.28-.06-.58-.11-.92-.16-.34-.05-.68-.11-1.01-.19-.34-.08-.65-.2-.92-.36-.28-.16-.5-.37-.67-.64-.17-.27-.26-.63-.26-1.07,0-.48.14-.9.41-1.25.28-.36.66-.64,1.16-.84.5-.2,1.09-.3,1.78-.3.5,0,1.02.06,1.55.18.53.12.97.28,1.32.49l-.7,1.36c-.35-.21-.71-.36-1.09-.44-.37-.08-.74-.12-1.1-.12-.53,0-.93.08-1.2.24-.27.16-.4.36-.4.61,0,.23.09.4.26.52.17.11.4.2.67.26.28.06.58.12.92.17.34.05.67.12,1.01.2.33.08.64.2.92.34.28.15.51.36.68.62.17.27.26.62.26,1.05,0,.49-.14.9-.42,1.25-.28.35-.68.62-1.19.82-.51.2-1.12.29-1.84.29Z" style="fill: #00aae1; stroke-width: 0px;"/>
        </g>
        <rect x="70.56" y="47.21" width="56.24" height=".62" transform="translate(50.84 146.04) rotate(-89.81)" style="fill: #00aae1; stroke-width: 0px;"/>
      </g>
      <g>
        <path d="m85.97,14.17h0c-.09-1.88-1.36-3.48-3.16-4.01h0c-.5-.15-7.23-3.36-20.11-6.68C55.86,1.72,49.45-.06,43.05,0c-6.81.06-13.61,2.08-20.9,3.95C9.28,7.27,3.69,10.01,3.19,10.16h0C1.39,10.69.12,12.3.03,14.17h0c-.03.59-.65,14.65,5.47,39.83,5.26,21.63,24.54,33.57,34.91,39.98l.27.17c1.42.88,3.22.88,4.64,0l.27-.17c10.36-6.41,29.65-18.35,34.91-39.98,6.12-25.17,5.5-39.24,5.47-39.82Z" style="fill: #fff; stroke-width: 0px;"/>
        <path d="m84.6,15.32h0c-.09-1.81-1.32-3.37-3.06-3.88h0c-.48-.14-7-3.25-19.47-6.45-6.62-1.7-12.82-3.45-19.02-3.39-6.59.06-13.18,2.04-20.23,3.85-12.47,3.21-17.87,5.85-18.35,5.99h0c-1.74.51-2.97,2.07-3.06,3.88h0c-.03.57-.63,14.16,5.3,38.47,5.09,20.9,23.76,32.42,33.79,38.62l.26.16c1.38.85,3.12.85,4.49,0l.26-.16c10.03-6.19,28.7-17.72,33.79-38.62,5.92-24.32,5.32-37.9,5.3-38.47Z" style="fill: #00aae1; stroke-width: 0px;"/>
        <g>
          <path d="m50.99,34.88h-2.42v-11.53h-6.23c-2.71,0-4.91,2.2-4.91,4.91v6.61h-11.53v2.04c0,5.03,4.08,9.11,9.11,9.11h2.42v11.53h6.23c2.71,0,4.91-2.2,4.91-4.91v-6.61h11.53v-2.04c0-5.03-4.08-9.11-9.11-9.11Z" style="fill: #fff; stroke-width: 0px;"/>
          <g>
            <g>
              <path d="m49.51,16.45c-.03.48.33.89.8.91,2.87.16,5.06,2.66,4.89,5.56-.03.48.33.89.8.91s.88-.34.9-.81c.22-3.85-2.7-7.16-6.5-7.38-.47-.03-.88.34-.9.81Z" style="fill: #fff; stroke-width: 0px;"/>
              <path d="m49.74,12.51c-.03.48.33.89.8.91,3.76.22,6.86,2.72,8.05,6.1.4,1.13.58,2.35.51,3.62-.03.48.33.89.8.91s.88-.34.9-.81c.35-6.02-4.22-11.2-10.17-11.55-.47-.03-.88.34-.9.81Z" style="fill: #fff; stroke-width: 0px;"/>
            </g>
            <circle cx="51.22" cy="21.22" r="1.85" style="fill: #fff; stroke-width: 0px;"/>
          </g>
          <g>
            <path d="m27.21,71.37v-7.12h-2.56v-1.98h7.77v1.98h-2.56v7.12h-2.65Z" style="fill: #fff; stroke-width: 0px;"/>
            <path d="m35.75,71.51c-.78,0-1.47-.13-2.07-.39-.6-.26-1.06-.65-1.4-1.16-.33-.52-.5-1.16-.5-1.92,0-1.06.3-1.91.9-2.55.6-.64,1.5-.95,2.7-.95,1.09,0,1.95.28,2.56.83.62.56.92,1.31.92,2.27v1.17h-4.65c.12.36.36.61.72.76.36.15.84.23,1.45.23.39,0,.77-.04,1.16-.11.39-.07.7-.15.94-.25h0s0,1.6,0,1.6c-.66.31-1.58.47-2.75.47Zm-1.52-4.14h2.36v-.24c0-.26-.08-.48-.25-.65-.16-.17-.45-.25-.87-.25-.46,0-.78.1-.97.29-.18.19-.28.48-.28.85Z" style="fill: #fff; stroke-width: 0px;"/>
            <path d="m39.86,71.37v-9.09h2.65v3.21l2.75-3.21h3.02l-3.2,3.73,3.43,5.37h-2.82l-2.24-3.67-.93,1.04v2.63h-2.65Z" style="fill: #fff; stroke-width: 0px;"/>
            <path d="m52.27,71.51c-.78,0-1.47-.13-2.07-.39-.6-.26-1.06-.65-1.4-1.16-.33-.52-.5-1.16-.5-1.92,0-1.06.3-1.91.9-2.55.6-.64,1.5-.95,2.7-.95,1.09,0,1.95.28,2.56.83.62.56.92,1.31.92,2.27v1.17h-4.65c.12.36.36.61.72.76.36.15.84.23,1.45.23.39,0,.77-.04,1.16-.11.39-.07.7-.15.94-.25h0s0,1.6,0,1.6c-.66.31-1.58.47-2.75.47Zm-1.52-4.14h2.36v-.24c0-.26-.08-.48-.25-.65-.16-.17-.45-.25-.87-.25-.46,0-.78.1-.97.29-.18.19-.28.48-.28.85Z" style="fill: #fff; stroke-width: 0px;"/>
            <path d="m56.38,71.37v-6.69h2.56l.07.54c.27-.16.62-.31,1.04-.44.42-.13.85-.21,1.28-.24v1.98c-.24.02-.51.05-.8.1-.29.05-.56.11-.83.18-.27.07-.49.15-.67.23v4.35h-2.65Z" style="fill: #fff; stroke-width: 0px;"/>
          </g>
          <g>
            <rect x="36.28" y="34.92" width="1.18" height="11.04" style="fill: #dbdbdb; stroke-width: 0px;"/>
            <rect x="48.54" y="34.92" width="1.18" height="11.04" style="fill: #dbdbdb; stroke-width: 0px;"/>
          </g>
        </g>
      </g>
    </g>
  </g>
</svg>