<svg width="24" height="25" viewBox="0 0 24 25" fill="none" xmlns="http://www.w3.org/2000/svg">
<path d="M20.9427 17.1455C20.2864 13.1967 16.7762 9.03725 15 7.31012H9C7.22378 9.03725 3.71361 13.1967 3.05727 17.1455C2.56893 20.0835 5.27927 22.3101 8.30832 22.3101H15.6917C18.7207 22.3101 21.4311 20.0835 20.9427 17.1455Z" stroke="#00AAE1" stroke-width="1.5" stroke-linecap="round" stroke-linejoin="round"/>
<path d="M17 3.81012L17.6512 4.18222C17.7949 3.93078 17.7809 3.61909 17.6154 3.38145C17.4499 3.14382 17.1624 3.02271 16.8767 3.07032L17 3.81012ZM14 4.31012L13.4697 4.84045L13.7426 5.11337L14.1233 5.04992L14 4.31012ZM12 2.31012L12.5303 1.77979C12.2374 1.4869 11.7626 1.4869 11.4697 1.77979L12 2.31012ZM7 3.81012L7.1233 3.07032C6.83764 3.02271 6.5501 3.14382 6.38458 3.38145C6.21906 3.61909 6.20514 3.93078 6.34882 4.18222L7 3.81012ZM10 4.31012L9.8767 5.04992L10.2574 5.11337L10.5303 4.84045L10 4.31012ZM16.3488 3.43802L14.3488 6.93802L15.6512 7.68222L17.6512 4.18222L16.3488 3.43802ZM16.8767 3.07032L13.8767 3.57032L14.1233 5.04992L17.1233 4.54992L16.8767 3.07032ZM14.5303 3.77979L12.5303 1.77979L11.4697 2.84045L13.4697 4.84045L14.5303 3.77979ZM6.34882 4.18222L8.34882 7.68222L9.65118 6.93802L7.65118 3.43802L6.34882 4.18222ZM6.8767 4.54992L9.8767 5.04992L10.1233 3.57032L7.1233 3.07032L6.8767 4.54992ZM10.5303 4.84045L12.5303 2.84045L11.4697 1.77979L9.46967 3.77979L10.5303 4.84045Z" fill="#00AAE1"/>
<path d="M12 11.8101C10.8954 11.8101 10 12.4817 10 13.3101C10 14.1385 10.8954 14.8101 12 14.8101C13.1046 14.8101 14 15.4817 14 16.3101C14 17.1385 13.1046 17.8101 12 17.8101M12 11.8101C12.8708 11.8101 13.6116 12.2275 13.8862 12.8101M12 11.8101V10.3101M12 17.8101C11.1292 17.8101 10.3884 17.3927 10.1138 16.8101M12 17.8101V19.3101" stroke="#00AAE1" stroke-width="1.5" stroke-linejoin="round"/>
</svg>
