<svg width="22" height="22" viewBox="0 0 22 22" fill="none" xmlns="http://www.w3.org/2000/svg">
<path d="M6.35396 17C4.23084 17 3.16928 17 2.41349 16.5468C1.91953 16.2506 1.52158 15.8271 1.26475 15.3242C0.871793 14.5547 0.977422 13.5373 1.18868 11.5025C1.36503 9.80386 1.45321 8.95455 1.88684 8.33081C2.17153 7.92129 2.55659 7.58564 3.00797 7.35353C3.69548 7 4.58164 7 6.35396 7H15.646C17.4184 7 18.3045 7 18.992 7.35353C19.4434 7.58564 19.8285 7.92129 20.1132 8.33081C20.5468 8.95455 20.635 9.80386 20.8113 11.5025C21.0226 13.5373 21.1282 14.5547 20.7352 15.3242C20.4784 15.8271 20.0805 16.2506 19.5865 16.5468C18.8307 17 17.7692 17 15.646 17" stroke="#033D59" stroke-width="1.5"/>
<path d="M16 7V5C16 3.11438 16 2.17157 15.4142 1.58579C14.8284 1 13.8856 1 12 1H10C8.11438 1 7.17157 1 6.58579 1.58579C6 2.17157 6 3.11438 6 5V7" stroke="#033D59" stroke-width="1.5" stroke-linejoin="round"/>
<path d="M12.9887 15L9.01132 15C8.32602 15 7.98337 15 7.69183 15.1089C7.30311 15.254 6.97026 15.536 6.7462 15.9099C6.57815 16.1904 6.49505 16.5511 6.32884 17.2724C6.06913 18.3995 5.93928 18.963 6.02759 19.4149C6.14535 20.0174 6.51237 20.5274 7.02252 20.7974C7.40513 21 7.94052 21 9.01132 21L12.9887 21C14.0595 21 14.5949 21 14.9775 20.7974C15.4876 20.5274 15.8547 20.0174 15.9724 19.4149C16.0607 18.963 15.9309 18.3995 15.6712 17.2724C15.505 16.5511 15.4218 16.1904 15.2538 15.9099C15.0297 15.536 14.6969 15.254 14.3082 15.1089C14.0166 15 13.674 15 12.9887 15Z" stroke="#033D59" stroke-width="1.5" stroke-linejoin="round"/>
<path d="M17 11H17.009" stroke="#033D59" stroke-width="2" stroke-linecap="round" stroke-linejoin="round"/>
</svg>
