<svg width="20" height="22" viewBox="0 0 20 22" fill="none" xmlns="http://www.w3.org/2000/svg">
<g id="elements">
<path id="Vector 7302" d="M2 10V14C2 17.2998 2 18.9497 3.02513 19.9749C4.05025 21 5.70017 21 9 21H11C14.2998 21 15.9497 21 16.9749 19.9749C18 18.9497 18 17.2998 18 14V10" stroke="#00AAE1" stroke-width="1.5" stroke-linecap="round" stroke-linejoin="round"/>
<path id="Rectangle 1184" d="M1 8C1 7.25231 1 6.87846 1.20096 6.6C1.33261 6.41758 1.52197 6.26609 1.75 6.16077C2.09808 6 2.56538 6 3.5 6H16.5C17.4346 6 17.9019 6 18.25 6.16077C18.478 6.26609 18.6674 6.41758 18.799 6.6C19 6.87846 19 7.25231 19 8C19 8.74769 19 9.12154 18.799 9.4C18.6674 9.58242 18.478 9.73391 18.25 9.83923C17.9019 10 17.4346 10 16.5 10H3.5C2.56538 10 2.09808 10 1.75 9.83923C1.52197 9.73391 1.33261 9.58242 1.20096 9.4C1 9.12154 1 8.74769 1 8Z" stroke="#00AAE1" stroke-width="1.5" stroke-linejoin="round"/>
<path id="Rectangle 2365" d="M4 2.78571C4 1.79949 4.79949 1 5.78571 1H6.14286C8.2731 1 10 2.7269 10 4.85714V6H7.21429C5.43908 6 4 4.56091 4 2.78571Z" stroke="#00AAE1" stroke-width="1.5" stroke-linejoin="round"/>
<path id="Rectangle 2366" d="M16 2.78571C16 1.79949 15.2005 1 14.2143 1H13.8571C11.7269 1 10 2.7269 10 4.85714V6H12.7857C14.5609 6 16 4.56091 16 2.78571Z" stroke="#00AAE1" stroke-width="1.5" stroke-linejoin="round"/>
<path id="Vector 4639" d="M10 10L10 21" stroke="#00AAE1" stroke-width="1.5" stroke-linecap="round" stroke-linejoin="round"/>
</g>
</svg>
