<svg width="20" height="22" viewBox="0 0 20 22" fill="none" xmlns="http://www.w3.org/2000/svg">
<g id="elements">
<path id="Ellipse 350" d="M18.4593 16.5153C18.8198 16.9308 19 17.1385 19 17.5C19 17.8615 18.8198 18.0692 18.4593 18.4847C17.5612 19.5199 15.9381 21 14 21C12.0619 21 10.4388 19.5199 9.54069 18.4847C9.18023 18.0692 9 17.8615 9 17.5C9 17.1385 9.18023 16.9308 9.54069 16.5153C10.4388 15.4801 12.0619 14 14 14C15.9381 14 17.5612 15.4801 18.4593 16.5153Z" stroke="#00AAE1" stroke-width="1.5" stroke-linejoin="round"/>
<path id="Rectangle 2174" d="M18 12.0032V6.81989C18 5.12616 18 4.27928 17.732 3.60291C17.3012 2.51554 16.3902 1.65784 15.2352 1.25228C14.5168 1 13.6173 1 11.8182 1C8.66981 1 7.09563 1 5.83836 1.44148C3.81714 2.15122 2.22281 3.6522 1.46894 5.55509C1 6.73875 1 8.22077 1 11.1848V13.731C1 16.8013 1 18.3364 1.8477 19.4025C2.09058 19.708 2.37862 19.9792 2.70307 20.2078C3.61506 20.8506 4.85019 20.9757 7 21" stroke="#00AAE1" stroke-width="1.5" stroke-linecap="round" stroke-linejoin="round"/>
<path id="Vector" d="M1 11C1 9.15905 2.49238 7.66667 4.33333 7.66667C4.99912 7.66667 5.78404 7.78333 6.43137 7.60988C7.00652 7.45576 7.45576 7.00652 7.60988 6.43136C7.78333 5.78404 7.66667 4.99912 7.66667 4.33333C7.66667 2.49238 9.15905 1 11 1" stroke="#00AAE1" stroke-width="1.5" stroke-linecap="round" stroke-linejoin="round"/>
<path id="Vector_2" d="M13.9922 17.5H14.0012" stroke="#00AAE1" stroke-width="2" stroke-linecap="round" stroke-linejoin="round"/>
</g>
</svg>
