<?xml version="1.0" encoding="UTF-8"?>
<svg id="Layer_2" data-name="Layer 2" xmlns="http://www.w3.org/2000/svg" viewBox="0 0 20 20">
  <defs>
    <style>
      .cls-1 {
        fill: #00323e;
      }
    </style>
  </defs>
  <g id="Layer_1-2" data-name="Layer 1">
    <g>
      <path class="cls-1" d="m19.12,2.08c-.33-.47-.73-.87-1.2-1.2-1.26-.88-2.86-.88-6.06-.88h-3.72C4.95,0,3.34,0,2.08.88c-.47.33-.87.73-1.2,1.2-.88,1.26-.88,2.86-.88,6.06s0,4.8.88,6.06c.33.47.73.87,1.2,1.2,1.22.85,2.77.88,5.75.88.15.78.01,1.64-.42,2.21l-.08.11h-1.98c-.39,0-.7.31-.7.7s.31.7.7.7h9.3c.39,0,.7-.31.7-.7s-.31-.7-.7-.7h-1.98l-.08-.11c-.43-.57-.57-1.43-.42-2.21,2.98,0,4.53-.03,5.75-.88.47-.33.87-.73,1.2-1.2.88-1.26.88-2.86.88-6.06s0-4.8-.88-6.06Zm-10.18,16.52c.31-.71.42-1.53.32-2.33h1.49c-.1.8,0,1.62.32,2.33h-2.12Zm9.03-5.21c-.23.33-.52.62-.86.86-.9.63-2.36.63-5.26.63h-3.72c-2.9,0-4.36,0-5.26-.63-.34-.23-.62-.52-.86-.86-.63-.9-.63-2.36-.63-5.26s0-4.35.63-5.26c.23-.33.52-.62.86-.86.9-.63,2.36-.63,5.26-.63h3.72c2.9,0,4.36,0,5.26.63.33.23.62.52.86.86.63.9.63,2.36.63,5.26s0,4.36-.63,5.26Z"/>
      <path class="cls-1" d="m10,8.84c1.41,0,2.56-1.15,2.56-2.56s-1.15-2.56-2.56-2.56-2.56,1.15-2.56,2.56,1.15,2.56,2.56,2.56Zm0-3.72c.64,0,1.16.52,1.16,1.16s-.52,1.16-1.16,1.16-1.16-.52-1.16-1.16.52-1.16,1.16-1.16Z"/>
      <path class="cls-1" d="m10.08,9.3c-1.77-.02-3.41.79-4.37,2.15-.22.31-.15.75.17.97.31.22.75.15.97-.17.7-.98,1.89-1.57,3.19-1.57h.03c1.28,0,2.4.58,3.07,1.56.14.2.35.3.58.3.14,0,.27-.04.39-.12.32-.22.4-.65.18-.97-.94-1.36-2.47-2.15-4.21-2.16Z"/>
    </g>
  </g>
</svg>