<svg width="22" height="20" viewBox="0 0 22 20" fill="none" xmlns="http://www.w3.org/2000/svg">
<g id="elements">
<path id="Vector 6693" d="M2.58984 16.177C2.44055 16.0742 2.30166 15.9585 2.17157 15.8284C1 14.6569 1 12.7712 1 9C1 5.22876 1 3.34315 2.17157 2.17157C3.34315 1 5.22876 1 9 1H13C16.7712 1 18.6569 1 19.8284 2.17157C21 3.34315 21 5.22876 21 9C21 12.7712 21 14.6569 19.8284 15.8284C19.6983 15.9585 19.5595 16.0742 19.4102 16.177" stroke="#00AAE1" stroke-width="1.5" stroke-linecap="round"/>
<path id="Vector" d="M7.6863 14.926C6.82171 15.4525 4.55483 16.5276 5.93552 17.8729C6.60997 18.53 7.36113 19 8.30553 19H13.6945C14.6389 19 15.39 18.53 16.0645 17.8729C17.4452 16.5276 15.1783 15.4525 14.3137 14.926C12.2863 13.6913 9.71373 13.6913 7.6863 14.926Z" stroke="#00AAE1" stroke-width="1.5" stroke-linecap="round" stroke-linejoin="round"/>
<path id="Ellipse 1381" d="M13.5 9C13.5 10.3807 12.3807 11.5 11 11.5C9.61929 11.5 8.5 10.3807 8.5 9C8.5 7.61929 9.61929 6.5 11 6.5C12.3807 6.5 13.5 7.61929 13.5 9Z" stroke="#00AAE1" stroke-width="1.5"/>
</g>
</svg>
