<svg width="24" height="25" viewBox="0 0 24 25" fill="none" xmlns="http://www.w3.org/2000/svg">
<path d="M18 7.31012C18.7745 7.4707 19.3588 7.73871 19.8284 8.18601C21 9.30193 21 11.098 21 14.6901C21 18.2822 21 20.0783 19.8284 21.1942C18.6569 22.3101 16.7712 22.3101 13 22.3101H11C7.22876 22.3101 5.34315 22.3101 4.17157 21.1942C3 20.0783 3 18.2822 3 14.6901C3 11.098 3 9.30193 4.17157 8.18601C4.64118 7.73871 5.2255 7.4707 6 7.31012" stroke="#00AAE1" stroke-width="1.5" stroke-linecap="round"/>
<path d="M12.0253 2.31064L12 14.3101M12.0253 2.31064C11.8627 2.30391 11.6991 2.36203 11.5533 2.48504C10.6469 3.25018 9 5.23898 9 5.23898M12.0253 2.31064C12.1711 2.31668 12.3162 2.37488 12.4468 2.4852C13.3531 3.25049 15 5.23898 15 5.23898" stroke="#00AAE1" stroke-width="1.5" stroke-linecap="round" stroke-linejoin="round"/>
</svg>
