<svg width="16" height="16" viewBox="0 0 16 16" fill="none" xmlns="http://www.w3.org/2000/svg">
<g id="Rating/Ico-Star">
<path id="Icon color" d="M1.46766 6.56917C1.35503 6.48716 1.30687 6.34269 1.34778 6.2095L1.40106 6.04298C1.44001 5.91138 1.55713 5.81821 1.69411 5.80985L5.94999 5.47016L7.58175 1.54701C7.63648 1.40958 7.77386 1.32337 7.92142 1.33387H8.09458C8.23369 1.33092 8.35937 1.41649 8.40761 1.54701L10.046 5.47016L14.3019 5.80985C14.4389 5.81821 14.556 5.91138 14.595 6.04298L14.6482 6.2095C14.6936 6.33848 14.6537 6.48204 14.5483 6.56917L11.3381 9.3267L12.3238 13.463C12.3563 13.5954 12.3065 13.7344 12.1973 13.816L12.0041 13.9226C11.8915 13.9987 11.7438 13.9987 11.6312 13.9226L8.008 11.7245L4.36486 13.9426C4.2522 14.0187 4.10455 14.0187 3.99189 13.9426L3.84536 13.8426C3.73617 13.761 3.68634 13.622 3.71882 13.4896L4.67789 9.3267L1.46766 6.56917Z" fill="#FBBF24"/>
</g>
</svg>
