<svg width="20" height="22" viewBox="0 0 20 22" fill="none" xmlns="http://www.w3.org/2000/svg">
<g id="elements">
<path id="Vector" d="M11.0011 1C12.1051 1 13 1.93126 13 3.08003L13 5.5L7 9L1 5.5L1 3.07981C1 1.93116 1.89483 1 2.99866 1" stroke="#00AAE1" stroke-width="1.5" stroke-linejoin="round"/>
<path id="Vector_2" d="M7 13L7 16.4998C7 18.9852 9.01487 21.0001 11.5003 21.0001C13.9858 21.0001 16.0007 18.9852 16.0007 16.4998V15" stroke="#00AAE1" stroke-width="1.5" stroke-linejoin="round"/>
<path id="Vector_3" d="M12 6L10 11L6.9696 13L4 11L2 6" stroke="#00AAE1" stroke-width="1.5"/>
<path id="Ellipse 1696" d="M19 12C19 13.6569 17.6569 15 16 15C14.3431 15 13 13.6569 13 12C13 10.3431 14.3431 9 16 9C17.6569 9 19 10.3431 19 12Z" stroke="#00AAE1" stroke-width="1.5"/>
<path id="Vector_4" d="M16.009 12L16 12" stroke="#00AAE1" stroke-width="2" stroke-linecap="round" stroke-linejoin="round"/>
</g>
</svg>
