<svg width="19" height="18" viewBox="0 0 19 18" fill="none" xmlns="http://www.w3.org/2000/svg">
<g id="elements">
<path id="Ellipse 1794" d="M9.49996 17.3327C14.1023 17.3327 17.8333 13.6017 17.8333 8.99935C17.8333 4.39698 14.1023 0.666016 9.49996 0.666016C4.89759 0.666016 1.16663 4.39698 1.16663 8.99935C1.16663 10.1484 1.39919 11.2431 1.81981 12.2391C2.05228 12.7895 2.16851 13.0647 2.1829 13.2727C2.19729 13.4807 2.13608 13.7094 2.01364 14.167L1.16663 17.3327L4.33227 16.4857C4.78986 16.3632 5.01866 16.302 5.22665 16.3164C5.43463 16.3308 5.70984 16.447 6.26025 16.6795C7.25617 17.1001 8.3509 17.3327 9.49996 17.3327Z" stroke="white" stroke-width="1.13" stroke-linejoin="round"/>
<path id="Vector" d="M6.65671 9.31412L7.38249 8.41271C7.68839 8.03279 8.06654 7.67908 8.09614 7.17322C8.10362 7.04546 8.01371 6.47181 7.83392 5.32456C7.76326 4.87369 7.3423 4.83301 6.97769 4.83301C6.50254 4.83301 6.26496 4.83301 6.02904 4.94077C5.73087 5.07697 5.42474 5.45993 5.35756 5.78078C5.30441 6.03464 5.34391 6.20957 5.42291 6.55941C5.75844 8.04536 6.5456 9.51288 7.76615 10.7334C8.98671 11.954 10.4542 12.7412 11.9402 13.0767C12.29 13.1557 12.4649 13.1952 12.7188 13.142C13.0397 13.0749 13.4226 12.7687 13.5588 12.4705C13.6666 12.2346 13.6666 11.9971 13.6666 11.5219C13.6666 11.1573 13.6259 10.7363 13.175 10.6657C12.0278 10.4859 11.4541 10.396 11.3264 10.4035C10.8205 10.4331 10.4668 10.8112 10.0869 11.1171L9.18547 11.8429" stroke="white" stroke-width="1.13"/>
</g>
</svg>
